# Blender v3.2.1 OBJ File: 'BlenderSource.blend'
# www.blender.org
mtllib 1101 0001.mtl
o 1101_0001_立方体.231
v 0.500000 -0.500000 -0.000000
v 0.000000 -0.500000 -0.000000
v 0.000000 -0.500000 -0.500000
v 0.000000 0.000000 -0.500000
v 0.000000 0.500000 -0.500000
v 0.000000 -0.000000 0.000000
v -0.000000 -0.000000 0.500000
v 0.000000 0.500000 0.000000
v -0.500000 0.000000 -0.000000
v -0.500000 0.000000 0.500000
v -0.500000 0.500000 -0.000000
v 0.500000 -0.000000 0.000000
v 0.500000 -0.000000 0.500000
vt 0.625000 0.500000
vt 0.375000 0.750000
vt 0.375000 0.500000
vt 0.125000 0.750000
vt 0.125000 0.500000
vt 0.625000 0.500000
vt 0.375000 0.750000
vt 0.375000 0.500000
vt 0.375000 1.000000
vt 0.625000 0.750000
vt 0.375000 0.750000
vt 0.125000 0.750000
vt 0.375000 0.500000
vt 0.125000 0.500000
vt 0.625000 1.000000
vt 0.625000 0.750000
vt 0.625000 0.750000
vt 0.625000 0.750000
vt 0.625000 1.000000
vt 0.375000 1.000000
vn -1.0000 -0.0000 -0.0000
vn -0.0000 -0.0000 1.0000
vn -0.0000 -1.0000 -0.0000
vn 0.0000 0.0000 -1.0000
usemtl None
s off
f 4/1/1 2/2/1 6/3/1
f 6/3/2 1/4/2 12/5/2
f 5/6/1 6/7/1 8/8/1
f 6/9/3 10/10/3 9/11/3
f 6/12/4 11/13/4 8/14/4
f 6/7/3 13/15/3 7/16/3
f 4/1/1 3/17/1 2/2/1
f 6/3/2 2/2/2 1/4/2
f 5/6/1 4/18/1 6/7/1
f 6/9/3 7/19/3 10/10/3
f 6/12/4 9/11/4 11/13/4
f 6/7/3 12/20/3 13/15/3
