# WaveFront *.obj file (generated by Cinema 4D)

mtllib ./0000_1000.mtl

v 0.258165 0.248327 0.251293
v 0.258165 0.248327 0.501293
v 0.008165 0.248327 0.251293
v 0.258165 -0.001673 0.251293
v 0.008165 -0.001673 0.251293
v 0.008165 0.248327 0.501293
v 0.008165 0.248327 0.251293
v 0.258165 0.248327 0.251293
v 0.008165 0.248327 0.251293
v 0.008165 0.248327 0.501293
v 0.008165 -0.001673 0.251293
v 0.258165 -0.001673 0.001293
v 0.008165 -0.001673 0.001293
v 0.008165 -0.001673 0.501293
v 0.008165 -0.001673 0.251293
v 0.008165 -0.001673 0.501293
v 0.258165 -0.001673 0.251293
v 0.258165 -0.001673 0.501293
v 0.008165 0.248327 0.001293
v 0.258165 -0.001673 0.251293
v 0.258165 -0.001673 0.501293
v 0.258165 0.248327 0.251293
v 0.258165 0.248327 0.001293
v 0.258165 0.248327 0.251293
v 0.258165 0.248327 0.001293
v 0.258165 -0.001673 0.251293
v 0.258165 -0.001673 0.001293
v 0.258165 -0.001673 0.251293
v 0.258165 0.248327 0.501293
v 0.258165 0.248327 0.251293
v 0.008165 0.248327 0.251293
v 0.008165 -0.001673 0.251293
v 0.258165 -0.001673 0.251293
v 0.258165 -0.001673 0.001293
v 0.258165 0.248327 0.501293
v 0.008165 0.248327 0.501293
v 0.008165 -0.001673 0.501293
v 0.258165 -0.001673 0.501293
v 0.008165 -0.001673 0.251293
v 0.008165 -0.001673 0.001293
v 0.008165 -0.001673 0.251293
v 0.008165 -0.001673 0.001293
v 0.008165 0.248327 0.251293
v 0.008165 0.248327 0.001293
v 0.008165 0.248327 0.251293
v 0.008165 0.248327 0.001293
v 0.258165 0.248327 0.251293
v 0.258165 0.248327 0.001293
v 0.508165 -0.001673 0.251293
v 0.258165 -0.001673 0.251293
v 0.258165 0.248327 0.251293
v 0.508165 0.248327 0.251293
v 0.508165 -0.001673 0.001293
v 0.508165 0.248327 0.251293
v 0.508165 0.248327 0.501293
v 0.258165 0.248327 0.251293
v 0.258165 -0.001673 0.001293
v 0.258165 0.248327 0.001293
v 0.508165 0.248327 0.001293
v 0.508165 0.248327 0.251293
v 0.508165 0.248327 0.001293
v 0.508165 -0.001673 0.251293
v 0.508165 -0.001673 0.001293
v 0.508165 -0.001673 0.251293
v 0.508165 -0.001673 0.001293
v 0.258165 -0.001673 0.251293
v 0.258165 -0.001673 0.001293
v 0.258165 -0.001673 0.251293
v 0.258165 -0.001673 0.001293
v 0.258165 0.248327 0.251293
v 0.258165 0.248327 0.001293
v 0.258165 0.248327 0.251293
v 0.258165 0.248327 0.001293
v 0.508165 0.248327 0.251293
v 0.508165 0.248327 0.001293
v 0.508165 -0.001673 0.501293
v 0.258165 -0.001673 0.501293
v 0.258165 0.248327 0.501293
v 0.508165 0.248327 0.501293
v 0.508165 -0.001673 0.251293
v 0.258165 -0.001673 0.251293
v 0.258165 0.248327 0.251293
v 0.508165 0.248327 0.251293
v 0.508165 0.248327 0.501293
v 0.508165 0.248327 0.251293
v 0.508165 -0.001673 0.501293
v 0.508165 -0.001673 0.251293
v 0.508165 -0.001673 0.501293
v 0.508165 -0.001673 0.251293
v 0.258165 -0.001673 0.501293
v 0.258165 -0.001673 0.251293
v 0.258165 -0.001673 0.501293
v 0.258165 -0.001673 0.251293
v 0.258165 0.248327 0.501293
v 0.258165 0.248327 0.251293
v 0.258165 0.248327 0.501293
v 0.500000 -0.500000 0.000000
v 0.500000 -0.000000 0.000000
v 0.500000 0.000000 0.500000
v 0.000000 -0.500000 0.000000
v 0.000000 -0.000000 0.000000
v 0.000000 -0.500000 0.500000
v 0.000000 0.000000 0.500000
v 0.258165 -0.250186 -0.251664
v 0.258165 -0.000186 -0.251664
v 0.008165 -0.250186 -0.251664
v 0.258165 -0.250186 -0.001664
v 0.008165 -0.250186 -0.001664
v 0.008165 -0.250186 -0.251664
v 0.258165 -0.250186 -0.251664
v 0.258165 -0.500186 -0.001664
v 0.008165 -0.500186 -0.001664
v 0.008165 -0.500186 -0.251664
v 0.258165 -0.500186 -0.251664
v 0.258165 -0.250186 -0.251664
v 0.258165 -0.500186 -0.251664
v 0.258165 -0.250186 -0.001664
v 0.258165 -0.500186 -0.001664
v 0.258165 -0.250186 -0.001664
v 0.258165 -0.500186 -0.001664
v 0.008165 -0.000186 -0.251664
v 0.008165 -0.250186 -0.001664
v 0.008165 -0.500186 -0.001664
v 0.008165 -0.250186 -0.001664
v 0.008165 -0.500186 -0.001664
v 0.008165 -0.250186 -0.251664
v 0.008165 -0.500186 -0.251664
v 0.008165 -0.250186 -0.251664
v 0.008165 -0.500186 -0.251664
v 0.258165 -0.250186 -0.251664
v 0.258165 -0.500186 -0.251664
v 0.508165 -0.250186 -0.001664
v 0.008165 -0.250186 -0.251664
v 0.258165 -0.250186 -0.001664
v 0.008165 -0.000186 -0.251664
v 0.258165 -0.250186 -0.251664
v 0.508165 -0.250186 -0.251664
v 0.508165 -0.500186 -0.001664
v 0.258165 -0.500186 -0.001664
v 0.258165 -0.500186 -0.251664
v 0.508165 -0.500186 -0.251664
v 0.508165 -0.250186 -0.251664
v 0.508165 -0.500186 -0.251664
v 0.508165 -0.250186 -0.001664
v 0.508165 -0.500186 -0.001664
v 0.508165 -0.250186 -0.001664
v 0.508165 -0.500186 -0.001664
v 0.258165 -0.250186 -0.001664
v 0.258165 -0.500186 -0.001664
v 0.258165 -0.250186 -0.001664
v 0.258165 -0.500186 -0.001664
v 0.258165 -0.250186 -0.251664
v 0.258165 -0.500186 -0.251664
v 0.258165 -0.250186 -0.251664
v 0.258165 -0.500186 -0.251664
v 0.508165 -0.250186 -0.251664
v 0.508165 -0.500186 -0.251664
v 0.508165 -0.000186 -0.001664
v 0.258165 -0.000186 -0.001664
v 0.258165 -0.000186 -0.251664
v 0.508165 -0.000186 -0.251664
v 0.508165 -0.250186 -0.001664
v 0.258165 -0.250186 -0.001664
v 0.258165 -0.250186 -0.251664
v 0.508165 -0.250186 -0.251664
v 0.508165 -0.000186 -0.251664
v 0.508165 -0.250186 -0.251664
v 0.508165 -0.000186 -0.001664
v 0.508165 -0.250186 -0.001664
v 0.508165 -0.000186 -0.001664
v 0.508165 -0.250186 -0.001664
v 0.258165 -0.000186 -0.001664
v 0.258165 -0.250186 -0.001664
v 0.258165 -0.000186 -0.001664
v 0.258165 -0.250186 -0.001664
v 0.258165 -0.000186 -0.251664
v 0.258165 -0.250186 -0.251664
v 0.258165 -0.000186 -0.251664
v 0.258165 -0.250186 -0.251664
v 0.508165 -0.000186 -0.251664
v 0.508165 -0.250186 -0.251664
v 0.258165 -0.000186 -0.001664
v 0.008165 -0.000186 -0.001664
v 0.008165 -0.000186 -0.251664
v 0.258165 -0.000186 -0.251664
v 0.258165 -0.250186 -0.001664
v 0.008165 -0.250186 -0.001664
v 0.008165 -0.250186 -0.251664
v 0.258165 -0.250186 -0.251664
v 0.258165 -0.000186 -0.251664
v 0.258165 -0.250186 -0.251664
v 0.258165 -0.000186 -0.001664
v 0.258165 -0.250186 -0.001664
v 0.258165 -0.000186 -0.001664
v 0.258165 -0.250186 -0.001664
v 0.008165 -0.000186 -0.001664
v 0.008165 -0.250186 -0.001664
v 0.008165 -0.000186 -0.001664
v 0.008165 -0.250186 -0.001664
# 199 vertices

vn 0.000000 1.000000 -0.000000
vn -1.000000 0.000000 0.000000
vn 0.000000 -1.000000 0.000000
vn 1.000000 0.000000 0.000000
vn 0.000000 -0.000000 -1.000000
vn 0.000000 0.000000 1.000000
# 6 normals

vt 0.250000 0.666666 0.000000
vt 0.250000 0.000000 0.000000
vt 0.000000 0.000000 0.000000
vt 0.000000 1.000000 0.000000
vt 0.000000 0.666666 0.000000
vt 0.500000 0.666666 0.000000
vt 0.500000 0.000000 0.000000
vt 0.750000 0.666666 0.000000
vt 0.750000 0.000000 0.000000
vt 1.000000 0.666666 0.000000
vt 1.000000 0.000000 0.000000
vt 0.000000 0.666667 0.000000
vt 0.250000 1.000000 0.000000
vt 0.250000 0.666667 0.000000
vt 0.750000 0.666667 0.000000
vt 0.750000 1.000000 0.000000
vt 1.000000 0.666667 0.000000
vt 1.000000 1.000000 0.000000
vt 0.375000 0.500000 0.000000
vt 0.375000 0.750000 0.000000
vt 0.625000 0.500000 0.000000
vt 0.375000 1.000000 0.000000
vt 0.625000 0.750000 0.000000
vt 0.875000 0.500000 0.000000
vt 0.625000 1.000000 0.000000
vt 0.875000 0.750000 0.000000
# 26 texture coordinates

o 0000_1000.1
usemtl putongde
f 1/3/1 3/2/1 6/1/1
f 1/3/1 6/1/1 2/5/1
f 9/2/2 11/7/2 14/6/2
f 9/2/2 14/6/2 10/1/2
f 15/7/3 17/9/3 18/8/3
f 15/7/3 18/8/3 16/6/3
f 20/9/4 22/11/4 29/10/4
f 20/9/4 29/10/4 21/8/4
f 31/13/5 30/4/5 33/12/5
f 33/12/5 32/14/5 31/13/5
f 36/17/6 38/16/6 35/15/6
f 38/16/6 36/17/6 37/18/6
f 54/3/1 56/2/1 96/1/1
f 54/3/1 96/1/1 55/5/1
f 95/2/2 93/7/2 92/6/2
f 95/2/2 92/6/2 94/1/2
f 91/7/3 89/9/3 88/8/3
f 91/7/3 88/8/3 90/6/3
f 87/9/4 85/11/4 84/10/4
f 87/9/4 84/10/4 86/8/4
f 82/13/5 83/4/5 80/12/5
f 80/12/5 81/14/5 82/13/5
f 78/17/6 76/16/6 79/15/6
f 76/16/6 78/17/6 77/18/6
f 75/3/1 73/2/1 72/1/1
f 75/3/1 72/1/1 74/5/1
f 71/2/2 69/7/2 68/6/2
f 71/2/2 68/6/2 70/1/2
f 67/7/3 65/9/3 64/8/3
f 67/7/3 64/8/3 66/6/3
f 63/9/4 61/11/4 60/10/4
f 63/9/4 60/10/4 62/8/4
f 58/13/5 59/4/5 53/12/5
f 53/12/5 57/14/5 58/13/5
f 51/17/6 49/16/6 52/15/6
f 49/16/6 51/17/6 50/18/6
f 48/3/1 46/2/1 45/1/1
f 48/3/1 45/1/1 47/5/1
f 44/2/2 42/7/2 41/6/2
f 44/2/2 41/6/2 43/1/2
f 40/7/3 34/9/3 28/8/3
f 40/7/3 28/8/3 39/6/3
f 27/9/4 25/11/4 24/10/4
f 27/9/4 24/10/4 26/8/4
f 19/13/5 23/4/5 12/12/5
f 12/12/5 13/14/5 19/13/5
f 7/17/6 4/16/6 8/15/6
f 4/16/6 7/17/6 5/18/6
f 104/3/5 106/2/5 121/1/5
f 104/3/5 121/1/5 105/5/5
f 133/2/2 199/7/2 198/6/2
f 133/2/2 198/6/2 135/1/2
f 197/7/6 195/9/6 194/8/6
f 197/7/6 194/8/6 196/6/6
f 193/9/4 191/11/4 190/10/4
f 193/9/4 190/10/4 192/8/4
f 188/13/3 189/4/3 186/12/3
f 186/12/3 187/14/3 188/13/3
f 184/17/1 182/16/1 185/15/1
f 182/16/1 184/17/1 183/18/1
f 181/3/5 179/2/5 178/1/5
f 181/3/5 178/1/5 180/5/5
f 177/2/2 175/7/2 174/6/2
f 177/2/2 174/6/2 176/1/2
f 173/7/6 171/9/6 170/8/6
f 173/7/6 170/8/6 172/6/6
f 169/9/4 167/11/4 166/10/4
f 169/9/4 166/10/4 168/8/4
f 164/13/3 165/4/3 162/12/3
f 162/12/3 163/14/3 164/13/3
f 160/17/1 158/16/1 161/15/1
f 158/16/1 160/17/1 159/18/1
f 157/3/5 155/2/5 154/1/5
f 157/3/5 154/1/5 156/5/5
f 153/2/2 151/7/2 150/6/2
f 153/2/2 150/6/2 152/1/2
f 149/7/6 147/9/6 146/8/6
f 149/7/6 146/8/6 148/6/6
f 145/9/4 143/11/4 142/10/4
f 145/9/4 142/10/4 144/8/4
f 140/13/3 141/4/3 138/12/3
f 138/12/3 139/14/3 140/13/3
f 136/17/1 132/16/1 137/15/1
f 132/16/1 136/17/1 134/18/1
f 131/3/5 129/2/5 128/1/5
f 131/3/5 128/1/5 130/5/5
f 127/2/2 125/7/2 124/6/2
f 127/2/2 124/6/2 126/1/2
f 123/7/6 120/9/6 119/8/6
f 123/7/6 119/8/6 122/6/6
f 118/9/4 116/11/4 115/10/4
f 118/9/4 115/10/4 117/8/4
f 113/13/3 114/4/3 111/12/3
f 111/12/3 112/14/3 113/13/3
f 109/17/1 107/16/1 110/15/1
f 107/16/1 109/17/1 108/18/1

usemtl Material.004
f 103/21/2 100/20/2 102/19/2
f 101/23/5 97/22/5 100/20/5
f 99/24/1 101/23/1 103/21/1
f 103/21/2 101/23/2 100/20/2
f 101/23/5 98/25/5 97/22/5
f 99/24/1 98/26/1 101/23/1

