# Blender v3.2.1 OBJ File: 'BlenderSource.blend'
# www.blender.org
mtllib 0000 0001.mtl
o 0000_0001_立方体.007
v -3.362171 -0.500000 18.810280
v -3.362171 0.000000 18.810280
v -3.362171 0.000000 18.310280
v -3.862171 -0.500000 18.810280
v -3.862171 0.000000 18.810280
v -3.862171 -0.500000 18.310280
v -3.862171 0.000000 18.310280
vt 0.375000 0.750000
vt 0.625000 0.500000
vt 0.375000 0.500000
vt 0.375000 1.000000
vt 0.625000 0.750000
vt 0.875000 0.500000
vt 0.625000 1.000000
vt 0.875000 0.750000
vn -1.0000 0.0000 0.0000
vn 0.0000 0.0000 1.0000
vn 0.0000 1.0000 0.0000
usemtl None
s off
f 4/1/1 7/2/1 6/3/1
f 1/4/2 5/5/2 4/1/2
f 5/5/3 3/6/3 7/2/3
f 4/1/1 5/5/1 7/2/1
f 1/4/2 2/7/2 5/5/2
f 5/5/3 2/8/3 3/6/3
o 0000_1000_立方体.005
v -0.362171 -0.500000 18.310280
v -0.362171 0.000000 18.310280
v -0.362171 0.000000 18.810280
v -0.862171 -0.500000 18.310280
v -0.862171 0.000000 18.310280
v -0.862171 -0.500000 18.810280
v -0.862171 0.000000 18.810280
vt 0.625000 0.500000
vt 0.375000 0.750000
vt 0.375000 0.500000
vt 0.625000 0.750000
vt 0.375000 1.000000
vt 0.875000 0.500000
vt 0.625000 1.000000
vt 0.875000 0.750000
vn -1.0000 0.0000 0.0000
vn 0.0000 0.0000 -1.0000
vn 0.0000 1.0000 0.0000
usemtl None
s off
f 14/9/4 11/10/4 13/11/4
f 12/12/5 8/13/5 11/10/5
f 10/14/6 12/12/6 14/9/6
f 14/9/4 12/12/4 11/10/4
f 12/12/5 9/15/5 8/13/5
f 10/14/6 9/16/6 12/12/6
