# WaveFront *.obj file (generated by Cinema 4D)

mtllib ./0000_1000.mtl

v -0.080910 -0.337850 0.226799
v -0.084152 -0.487850 0.376764
v -0.087393 -0.337850 0.526729
v -0.084152 -0.187850 0.376764
v -0.234117 -0.337850 0.373522
v -0.080910 -0.135672 0.226799
v -0.084152 -0.285672 0.376764
v -0.087393 -0.135672 0.526729
v -0.084152 0.014328 0.376764
v -0.234117 -0.135672 0.373522
v -0.076215 -0.121664 0.009606
v -0.079457 -0.271664 0.159571
v -0.082698 -0.121664 0.309536
v -0.079457 0.028336 0.159571
v -0.229422 -0.121664 0.156329
v -0.078171 -0.181562 0.100112
v -0.076018 -0.368845 0.000509
v -0.080066 -0.468470 0.187748
v -0.082219 -0.281188 0.287350
v -0.229083 -0.325016 0.140688
v -0.078372 -0.256846 0.109388
v -0.081614 -0.406846 0.259353
v -0.084855 -0.256846 0.409318
v -0.081614 -0.106846 0.259353
v -0.231579 -0.256846 0.256111
v -0.009306 -0.498742 -0.005700
v -0.091350 -0.498742 -0.007474
v -0.020828 -0.498742 0.527313
v -0.102872 -0.498742 0.525539
v -0.020828 -0.498742 0.527313
v -0.102872 -0.498742 0.525539
v -0.020828 0.027156 0.527313
v -0.102872 0.027156 0.525539
v -0.020828 0.027156 0.527313
v -0.102872 0.027156 0.525539
v -0.009306 0.027156 -0.005700
v -0.091350 0.027156 -0.007474
v -0.009306 0.027156 -0.005700
v -0.091350 0.027156 -0.007474
v -0.009306 -0.498742 -0.005700
v -0.091350 -0.498742 -0.007474
v -0.009306 -0.498742 -0.005700
v -0.020828 -0.498742 0.527313
v -0.020828 0.027156 0.527313
v -0.009306 0.027156 -0.005700
v -0.091350 -0.498742 -0.007474
v -0.102872 -0.498742 0.525539
v -0.102872 0.027156 0.525539
v -0.091350 0.027156 -0.007474
v 0.287341 -0.336631 -0.059880
v 0.137376 -0.486631 -0.063121
v -0.012589 -0.336631 -0.066363
v 0.137376 -0.186631 -0.063121
v 0.140618 -0.336631 -0.213086
v 0.287341 -0.134453 -0.059880
v 0.137376 -0.284453 -0.063121
v -0.012589 -0.134453 -0.066363
v 0.137376 0.015547 -0.063121
v 0.140618 -0.134453 -0.213086
v 0.504534 -0.120445 -0.055185
v 0.354569 -0.270445 -0.058427
v 0.204604 -0.120445 -0.061668
v 0.354569 0.029555 -0.058427
v 0.357811 -0.120445 -0.208391
v 0.414028 -0.180343 -0.057141
v 0.513630 -0.367626 -0.054988
v 0.326392 -0.467251 -0.059036
v 0.226789 -0.279969 -0.061189
v 0.373452 -0.323797 -0.208053
v 0.404752 -0.255627 -0.057342
v 0.254787 -0.405627 -0.060583
v 0.104822 -0.255627 -0.063825
v 0.254787 -0.105627 -0.060583
v 0.258029 -0.255627 -0.210548
v 0.519840 -0.497523 0.011724
v 0.521614 -0.497523 -0.070320
v -0.013173 -0.497523 0.000202
v -0.011400 -0.497523 -0.081841
v -0.013173 -0.497523 0.000202
v -0.011400 -0.497523 -0.081841
v -0.013173 0.028375 0.000202
v -0.011400 0.028375 -0.081841
v -0.013173 0.028375 0.000202
v -0.011400 0.028375 -0.081841
v 0.519840 0.028375 0.011724
v 0.521614 0.028375 -0.070320
v 0.519840 0.028375 0.011724
v 0.521614 0.028375 -0.070320
v 0.519840 -0.497523 0.011724
v 0.521614 -0.497523 -0.070320
v 0.519840 -0.497523 0.011724
v -0.013173 -0.497523 0.000202
v -0.013173 0.028375 0.000202
v 0.519840 0.028375 0.011724
v 0.521614 -0.497523 -0.070320
v -0.011400 -0.497523 -0.081841
v -0.011400 0.028375 -0.081841
v 0.521614 0.028375 -0.070320
v 0.282918 0.066563 0.144733
v 0.136195 0.066563 -0.008474
v -0.017012 0.066563 0.138249
v 0.129711 0.066563 0.291456
v 0.132953 0.216563 0.141491
v 0.278548 0.066563 0.346864
v 0.131825 0.066563 0.193657
v -0.021381 0.066563 0.340380
v 0.125342 0.066563 0.493587
v 0.128584 0.216563 0.343622
v 0.495439 0.066563 0.365563
v 0.348716 0.066563 0.212356
v 0.195509 0.066563 0.359080
v 0.342232 0.066563 0.512286
v 0.345474 0.216563 0.362321
v 0.406227 0.066563 0.303722
v 0.509877 0.066563 0.118637
v 0.324792 0.066563 0.014987
v 0.221142 0.066563 0.200072
v 0.365510 0.216563 0.159355
v 0.398578 0.066563 0.228256
v 0.251855 0.066563 0.075049
v 0.098648 0.066563 0.221772
v 0.245372 0.066563 0.374979
v 0.248613 0.216563 0.225014
v 0.520333 0.000000 -0.011065
v 0.520333 0.082063 -0.011065
v -0.012680 -0.000000 -0.022587
v -0.012680 0.082063 -0.022587
v -0.012680 -0.000000 -0.022587
v -0.012680 0.082063 -0.022587
v -0.024046 -0.000000 0.503188
v -0.024046 0.082063 0.503188
v -0.024046 -0.000000 0.503188
v -0.024046 0.082063 0.503188
v 0.508967 -0.000000 0.514710
v 0.508967 0.082063 0.514710
v 0.508967 -0.000000 0.514710
v 0.508967 0.082063 0.514710
v 0.520333 0.000000 -0.011065
v 0.520333 0.082063 -0.011065
v 0.520333 0.000000 -0.011065
v -0.012680 -0.000000 -0.022587
v -0.024046 -0.000000 0.503188
v 0.508967 -0.000000 0.514710
v 0.520333 0.082063 -0.011065
v -0.012680 0.082063 -0.022587
v -0.024046 0.082063 0.503188
v 0.508967 0.082063 0.514710
# 147 vertices

vn -0.564738 -0.577350 -0.589693
vn -0.589693 -0.577350 0.564738
vn -0.589693 0.577350 0.564738
vn -0.564738 0.577350 -0.589693
vn -0.589693 0.577350 0.564738
vn -0.564738 0.577350 -0.589693
vn -0.564738 -0.577350 -0.589693
vn -0.589693 -0.577350 0.564738
vn -0.589693 0.577350 0.564738
vn -0.564738 0.577350 -0.589693
vn -0.561637 0.383459 -0.733160
vn -0.568928 -0.720851 -0.395847
vn -0.592794 -0.383459 0.708205
vn -0.585503 0.720851 0.370892
vn -0.564738 -0.577350 -0.589693
vn -0.564738 0.577350 -0.589693
vn 0.000000 -1.000000 0.000000
vn 0.000000 -1.000000 0.000000
vn -0.021612 0.000000 0.999767
vn -0.021612 0.000000 0.999766
vn 0.000000 1.000000 0.000000
vn 0.000000 1.000000 0.000000
vn 0.021611 0.000000 -0.999767
vn 0.999766 0.000000 0.021611
vn -0.999766 0.000000 -0.021611
vn 0.589693 -0.577350 -0.564738
vn 0.589693 0.577350 -0.564738
vn 0.589693 -0.577350 -0.564738
vn -0.564738 -0.577350 -0.589693
vn -0.564738 0.577350 -0.589693
vn 0.589693 0.577350 -0.564738
vn 0.589693 -0.577350 -0.564738
vn -0.564738 -0.577350 -0.589693
vn 0.589693 0.577350 -0.564738
vn 0.733160 0.383459 -0.561637
vn 0.395847 -0.720851 -0.568928
vn -0.708205 -0.383459 -0.592794
vn -0.370892 0.720851 -0.585503
vn 0.589693 -0.577350 -0.564738
vn -0.564738 0.577350 -0.589693
vn 0.589693 0.577350 -0.564738
vn 0.000000 -1.000000 0.000000
vn -0.999767 0.000000 -0.021611
vn 0.999767 0.000000 0.021612
vn 0.999766 0.000000 0.021612
vn -0.021611 0.000000 0.999766
vn -0.021611 0.000000 0.999766
vn 0.021611 0.000000 -0.999766
vn 0.021611 0.000000 -0.999766
vn 0.589693 0.577350 -0.564738
vn -0.589693 0.577350 0.564738
vn 0.564738 0.577350 0.589693
vn -0.564738 0.577350 -0.589693
vn -0.589693 0.577350 0.564738
vn 0.564738 0.577350 0.589693
vn 0.589693 0.577350 -0.564738
vn 0.564738 0.577350 0.589693
vn 0.712395 0.577350 0.398949
vn 0.398948 0.577350 -0.712395
vn -0.712395 0.577350 -0.398948
vn -0.398949 0.577350 0.712395
vn 0.589693 0.577350 -0.564738
vn -0.564738 0.577350 -0.589693
vn -0.589693 0.577350 0.564738
vn 0.564738 0.577350 0.589693
vn 0.021611 0.000000 -0.999766
vn -0.999767 0.000000 -0.021611
vn -0.021611 0.000000 0.999766
vn 0.999767 0.000000 0.021611
vn 0.000000 -1.000000 -0.000000
vn 0.000000 -1.000000 -0.000000
# 71 normals

vt 0.167000 0.711000 0.000000
vt 0.501000 0.710000 0.000000
vt 0.333000 0.422000 0.000000
vt 0.000000 1.000000 0.000000
vt 0.335000 0.999000 0.000000
vt 0.001000 1.000000 0.000000
vt 0.000000 0.423000 0.000000
vt 0.251709 0.536187 0.000000
vt 0.251709 0.000000 0.000000
vt 0.000000 0.000000 0.000000
vt 0.000000 0.536187 0.000000
vt 0.500000 0.536187 0.000000
vt 0.500000 0.000000 0.000000
vt 0.751709 0.536187 0.000000
vt 0.751709 0.000000 0.000000
vt 1.000000 0.536187 0.000000
vt 1.000000 0.000000 0.000000
vt 0.000000 0.536188 0.000000
vt 0.251709 1.000000 0.000000
vt 0.251709 0.536188 0.000000
vt 0.748291 0.536188 0.000000
vt 0.748291 1.000000 0.000000
vt 1.000000 0.536188 0.000000
vt 1.000000 1.000000 0.000000
# 24 texture coordinates

o 0000_1000
usemtl rubbish
f 1/3/1 2/2/1 5/1/1
f 2/2/2 3/5/2 5/1/2
f 3/5/3 4/6/3 5/1/3
f 4/7/4 1/3/4 5/1/4
f 6/3/1 7/2/1 10/1/1
f 7/2/2 8/5/2 10/1/2
f 8/5/5 9/6/5 10/1/5
f 9/7/6 6/3/6 10/1/6
f 11/3/7 12/2/7 15/1/7
f 12/2/8 13/5/8 15/1/8
f 13/5/9 14/6/9 15/1/9
f 14/7/10 11/3/10 15/1/10
f 16/3/11 17/2/11 20/1/11
f 17/2/12 18/5/12 20/1/12
f 18/5/13 19/6/13 20/1/13
f 19/7/14 16/3/14 20/1/14
f 21/3/15 22/2/15 25/1/15
f 22/2/2 23/5/2 25/1/2
f 23/5/5 24/6/5 25/1/5
f 24/7/16 21/3/16 25/1/16
f 26/10/17 28/9/17 29/8/17
f 26/10/17 29/8/17 27/11/18
f 30/9/19 32/13/20 33/12/19
f 30/9/19 33/12/19 31/8/20
f 34/13/21 36/15/21 37/14/21
f 34/13/21 37/14/21 35/12/22
f 38/15/23 40/17/23 41/16/23
f 38/15/23 41/16/23 39/14/23
f 43/19/24 42/4/24 45/18/24
f 45/18/24 44/20/24 43/19/24
f 47/23/25 49/22/25 46/21/25
f 49/22/25 47/23/25 48/24/25
f 50/3/26 51/2/26 54/1/26
f 51/2/7 52/5/7 54/1/7
f 52/5/10 53/6/10 54/1/10
f 53/7/27 50/3/27 54/1/27
f 55/3/28 56/2/28 59/1/28
f 56/2/29 57/5/29 59/1/29
f 57/5/30 58/6/30 59/1/30
f 58/7/31 55/3/31 59/1/31
f 60/3/32 61/2/32 64/1/32
f 61/2/33 62/5/33 64/1/33
f 62/5/30 63/6/30 64/1/30
f 63/7/34 60/3/34 64/1/34
f 65/3/35 66/2/35 69/1/35
f 66/2/36 67/5/36 69/1/36
f 67/5/37 68/6/37 69/1/37
f 68/7/38 65/3/38 69/1/38
f 70/3/39 71/2/39 74/1/39
f 71/2/33 72/5/33 74/1/33
f 72/5/40 73/6/40 74/1/40
f 73/7/41 70/3/41 74/1/41
f 75/10/17 77/9/18 78/8/17
f 75/10/17 78/8/17 76/11/42
f 79/9/43 81/13/43 82/12/43
f 79/9/43 82/12/43 80/8/43
f 83/13/21 85/15/21 86/14/21
f 83/13/21 86/14/21 84/12/21
f 87/15/44 89/17/45 90/16/44
f 87/15/44 90/16/44 88/14/45
f 92/19/46 91/4/47 94/18/46
f 94/18/46 93/20/46 92/19/46
f 96/23/49 98/22/49 95/21/48
f 98/22/49 96/23/49 97/24/49
f 99/3/50 100/2/50 103/1/50
f 100/2/10 101/5/10 103/1/10
f 101/5/51 102/6/51 103/1/51
f 102/7/52 99/3/52 103/1/52
f 104/3/34 105/2/34 108/1/34
f 105/2/53 106/5/53 108/1/53
f 106/5/54 107/6/54 108/1/54
f 107/7/55 104/3/55 108/1/55
f 109/3/56 110/2/56 113/1/56
f 110/2/10 111/5/10 113/1/10
f 111/5/5 112/6/5 113/1/5
f 112/7/57 109/3/57 113/1/57
f 114/3/58 115/2/58 118/1/58
f 115/2/59 116/5/59 118/1/59
f 116/5/60 117/6/60 118/1/60
f 117/7/61 114/3/61 118/1/61
f 119/3/62 120/2/62 123/1/62
f 120/2/63 121/5/63 123/1/63
f 121/5/64 122/6/64 123/1/64
f 122/7/65 119/3/65 123/1/65
f 124/10/66 126/9/66 127/8/66
f 124/10/66 127/8/66 125/11/66
f 128/9/67 130/13/67 131/12/67
f 128/9/67 131/12/67 129/8/67
f 132/13/68 134/15/68 135/14/68
f 132/13/68 135/14/68 133/12/68
f 136/15/69 138/17/69 139/16/69
f 136/15/69 139/16/69 137/14/69
f 141/19/70 140/4/71 143/18/70
f 143/18/70 142/20/70 141/19/70
f 145/23/21 147/22/21 144/21/21
f 147/22/21 145/23/21 146/24/22

