# Blender v3.2.1 OBJ File: 'BlenderSource.blend'
# www.blender.org
mtllib 0001 0110.mtl
o 0001_0110_立方体.077
v -24.382206 -0.500000 6.500000
v -24.882206 -0.000000 6.500000
v -24.382206 -0.500000 7.000000
v -24.382206 0.000000 6.500000
v -24.382206 0.500000 6.500000
v -23.882206 0.000000 6.500000
v -24.382206 0.500000 7.000000
v -23.882206 0.000000 7.000000
v -23.882206 0.500000 7.000000
v -24.382206 -0.000000 7.500000
v -24.382206 -0.500000 7.500000
v -24.882206 -0.000000 7.500000
v -24.382206 -0.000000 7.000000
v -24.882206 -0.000000 7.000000
vt 0.375000 0.750000
vt 0.375000 1.000000
vt 0.625000 1.000000
vt 0.625000 0.500000
vt 0.375000 0.500000
vt 0.625000 0.750000
vt 0.375000 1.000000
vt 0.125000 0.750000
vt 0.125000 0.500000
vt 0.375000 0.500000
vt 0.625000 0.750000
vt 0.625000 1.000000
vt 0.625000 1.000000
vt 0.125000 0.500000
vt 0.125000 0.500000
vt 0.125000 0.750000
vn 1.0000 0.0000 0.0000
vn 0.0000 0.0000 1.0000
vn -1.0000 0.0000 0.0000
vn 0.0000 -1.0000 0.0000
vn -0.0000 1.0000 0.0000
usemtl None
s off
f 13/1/1 10/2/1 11/3/1
f 9/4/2 13/1/2 8/5/2
f 7/6/3 4/7/3 13/1/3
f 8/5/4 4/8/4 6/9/4
f 13/1/5 4/8/5 14/10/5
f 11/3/1 3/11/1 13/1/1
f 3/11/1 1/12/1 13/1/1
f 1/12/1 4/7/1 13/1/1
f 9/4/2 7/6/2 13/1/2
f 7/6/3 5/13/3 4/7/3
f 8/5/4 13/1/4 4/8/4
f 4/8/5 2/14/5 14/10/5
f 14/10/5 12/15/5 10/16/5
f 10/16/5 13/1/5 14/10/5
