# Blender v3.2.1 OBJ File: 'BlenderSource.blend'
# www.blender.org
mtllib 0001 1011.mtl
o 0001_1011_立方体.267
v 0.000000 -0.000000 -0.500000
v -0.000000 0.500000 -0.000000
v 0.000000 0.500000 -0.500000
v 0.500000 0.500000 0.000000
v -0.500000 -0.500000 -0.000000
v -0.500000 -0.000000 -0.000000
v -0.500000 -0.000000 -0.500000
v -0.000000 -0.500000 0.000000
v -0.000000 -0.500000 0.500000
v -0.000000 -0.000000 0.000000
v -0.000000 -0.000000 0.500000
v 0.500000 -0.000000 0.000000
v 0.500000 -0.000000 0.500000
vt 0.625000 0.750000
vt 0.375000 1.000000
vt 0.375000 0.750000
vt 0.375000 0.500000
vt 0.125000 0.750000
vt 0.125000 0.500000
vt 0.625000 0.500000
vt 0.375000 0.750000
vt 0.375000 0.500000
vt 0.125000 0.750000
vt 0.125000 0.500000
vt 0.375000 0.750000
vt 0.625000 0.500000
vt 0.375000 0.500000
vt 0.375000 1.000000
vt 0.625000 0.750000
vt 0.625000 1.000000
vt 0.625000 0.750000
vt 0.625000 1.000000
vn -1.0000 -0.0000 -0.0000
vn -0.0000 0.0000 1.0000
vn -0.0000 1.0000 0.0000
usemtl None
s off
f 3/1/1 10/2/1 2/3/1
f 4/4/2 10/5/2 12/6/2
f 1/7/3 6/8/3 10/9/3
f 10/9/2 5/10/2 8/11/2
f 10/12/3 13/13/3 12/14/3
f 8/15/1 11/16/1 10/12/1
f 3/1/1 1/17/1 10/2/1
f 4/4/2 2/3/2 10/5/2
f 1/7/3 7/18/3 6/8/3
f 10/9/2 6/8/2 5/10/2
f 10/12/3 11/16/3 13/13/3
f 8/15/1 9/19/1 11/16/1
