# Blender v3.2.1 OBJ File: 'BlenderSource.blend'
# www.blender.org
mtllib 0010 0010.mtl
o 0010_0010_立方体.010
v -10.500000 -0.500000 20.000000
v -10.500000 0.500000 20.000000
v -10.000000 -0.500000 20.000000
v -10.000000 0.500000 20.000000
v -10.000000 -0.500000 19.500000
v -10.000000 0.500000 19.500000
vt 0.625000 0.500000
vt 0.375000 0.750000
vt 0.375000 0.500000
vt 0.625000 0.750000
vt 0.375000 1.000000
vt 0.625000 1.000000
vn 1.0000 0.0000 0.0000
vn 0.0000 0.0000 1.0000
usemtl None
s off
f 6/1/1 3/2/1 5/3/1
f 4/4/2 1/5/2 3/2/2
f 6/1/1 4/4/1 3/2/1
f 4/4/2 2/6/2 1/5/2
