# Blender v3.2.1 OBJ File: 'BlenderSource.blend'
# www.blender.org
mtllib 0011 0110.mtl
o 0011_0110_立方体.254
v -0.500000 -0.000000 0.500000
v -0.000000 -0.000000 0.500000
v -0.000000 -0.000000 -0.500000
v -0.000000 -0.500000 0.500000
v -0.000000 -0.500000 -0.500000
v -0.500000 -0.000000 0.000000
v -0.000000 -0.000000 -0.000000
v -0.250000 -0.000000 0.500000
v -0.250000 -0.000000 -0.000000
v 0.000000 0.000000 -0.500000
v 0.500000 0.000000 -0.500000
v 0.000000 0.000000 -0.000000
v 0.000000 0.500000 -0.000000
v 0.500000 0.000000 -0.000000
v 0.500000 0.500000 -0.000000
v 0.000000 0.500000 -0.000000
v -0.500000 0.500000 -0.000000
v -0.000000 -0.000000 0.000000
v -0.500000 -0.000000 0.000000
vt 0.375000 0.875000
vt 0.375000 0.750000
vt 0.500000 0.750000
vt 0.625000 0.500000
vt 0.625000 0.750000
vt 0.625000 0.500000
vt 0.375000 0.750000
vt 0.375000 0.500000
vt 0.125000 0.500000
vt 0.125000 0.750000
vt 0.375000 0.500000
vt 0.125000 0.750000
vt 0.125000 0.500000
vt 0.500000 0.875000
vt 0.500000 1.000000
vt 0.375000 1.000000
vt 0.375000 0.500000
vt 0.625000 0.750000
vt 0.375000 0.750000
vn -0.0000 1.0000 0.0000
vn 1.0000 0.0000 0.0000
vn -0.0000 0.0000 1.0000
vn 0.0000 -1.0000 0.0000
usemtl None
s off
f 8/1/1 2/2/1 7/3/1
f 5/4/2 3/5/2 7/3/2
f 15/6/3 12/7/3 14/8/3
f 11/9/4 12/7/4 10/10/4
f 19/11/3 16/12/3 17/13/3
f 7/3/1 9/14/1 8/1/1
f 9/14/1 6/15/1 8/1/1
f 6/15/1 1/16/1 8/1/1
f 7/3/2 2/2/2 4/17/2
f 4/17/2 5/4/2 7/3/2
f 15/6/3 13/18/3 12/7/3
f 11/9/4 14/8/4 12/7/4
f 19/11/3 18/19/3 16/12/3
