# Blender v3.2.1 OBJ File: 'BlenderSource.blend'
# www.blender.org
mtllib 0100 0101.mtl
o 0100_0101_立方体.083
v 0.000000 -0.500000 0.500000
v -0.500000 -0.500000 0.000000
v -0.000000 -0.000000 0.500000
v 0.000000 -0.500000 -0.000000
v 0.000000 -0.500000 -0.500000
v 0.500000 -0.500000 -0.000000
v 0.000000 -0.000000 -0.500000
v 0.500000 -0.000000 -0.000000
v 0.500000 -0.000000 -0.500000
v -0.000000 0.500000 0.000000
v -0.000000 0.500000 0.500000
v -0.500000 0.500000 0.000000
v -0.000000 0.000000 0.000000
v -0.500000 0.000000 0.000000
vt 0.375000 0.750000
vt 0.375000 1.000000
vt 0.625000 1.000000
vt 0.375000 0.500000
vt 0.625000 0.750000
vt 0.375000 1.000000
vt 0.125000 0.750000
vt 0.125000 0.500000
vt 0.375000 0.500000
vt 0.125000 0.750000
vt 0.625000 0.750000
vt 0.625000 1.000000
vt 0.625000 0.500000
vt 0.625000 1.000000
vt 0.125000 0.500000
vt 0.125000 0.500000
vn 1.0000 0.0000 0.0000
vn 0.0000 1.0000 -0.0000
vn -1.0000 0.0000 -0.0000
vn -0.0000 0.0000 1.0000
vn 0.0000 0.0000 -1.0000
usemtl None
s off
f 13/1/1 10/2/1 11/3/1
f 8/4/2 7/5/2 13/1/2
f 7/5/3 4/6/3 13/1/3
f 8/4/4 4/7/4 6/8/4
f 14/9/5 10/10/5 13/1/5
f 11/3/1 3/11/1 13/1/1
f 3/11/1 1/12/1 13/1/1
f 1/12/1 4/6/1 13/1/1
f 8/4/2 9/13/2 7/5/2
f 7/5/3 5/14/3 4/6/3
f 8/4/4 13/1/4 4/7/4
f 4/7/5 2/15/5 14/9/5
f 14/9/5 12/16/5 10/10/5
f 13/1/5 4/7/5 14/9/5
