# Blender v3.2.1 OBJ File: 'BlenderSource.blend'
# www.blender.org
mtllib 0101 1111.mtl
o 0101_1111_立方体.194
v -14.996367 0.000000 5.999987
v -14.996367 0.500000 5.999987
v -14.496380 0.000000 5.996353
v -14.500013 0.000000 5.496367
v -14.500013 0.500000 5.496367
v -15.000000 0.000000 5.000000
v -15.000000 0.500000 5.000000
v -15.500000 0.000000 5.000000
v -15.000000 0.000000 5.500000
v -15.000000 0.500000 5.500000
v -15.500000 0.000000 5.500000
v -15.500000 0.500000 5.500000
vt 0.375000 0.500000
vt 0.625000 0.750000
vt 0.375000 0.750000
vt 0.375000 1.000000
vt 0.125000 0.750000
vt 0.125000 0.500000
vt 0.625000 0.500000
vt 0.375000 0.500000
vt 0.375000 1.000000
vt 0.125000 0.750000
vt 0.125000 0.500000
vt 0.625000 0.500000
vt 0.625000 1.000000
vt 0.625000 1.000000
vn 0.0073 0.0000 1.0000
vn 1.0000 0.0000 -0.0073
vn -0.0000 1.0000 -0.0000
vn 0.0000 0.0000 -1.0000
vn -1.0000 0.0000 0.0000
usemtl None
s off
f 4/1/1 10/2/1 9/3/1
f 10/2/2 1/4/2 9/3/2
f 4/1/3 1/5/3 3/6/3
f 12/7/4 9/3/4 11/8/4
f 10/2/5 6/9/5 9/3/5
f 11/8/3 6/10/3 8/11/3
f 4/1/1 5/12/1 10/2/1
f 10/2/2 2/13/2 1/4/2
f 4/1/3 9/3/3 1/5/3
f 12/7/4 10/2/4 9/3/4
f 10/2/5 7/14/5 6/9/5
f 11/8/3 9/3/3 6/10/3
