# Blender v3.2.1 OBJ File: 'BlenderSource.blend'
# www.blender.org
mtllib 0101 0011.mtl
o 0101_0011_立方体.120
v -0.500000 0.000000 0.500000
v -0.500000 0.500000 -0.000000
v -0.000000 0.000000 0.500000
v -0.000000 0.500000 0.500000
v 0.000000 0.500000 0.000000
v 0.500000 0.500000 0.000000
v 0.000000 0.500000 -0.500000
v -0.500000 -0.500000 -0.000000
v -0.500000 -0.000000 -0.000000
v -0.500000 -0.000000 -0.500000
v 0.500000 -0.000000 0.000000
v 0.500000 -0.500000 0.000000
v 0.000000 -0.000000 0.000000
v 0.000000 -0.500000 0.000000
v 0.000000 -0.000000 -0.500000
vt 0.375000 0.750000
vt 0.625000 0.500000
vt 0.375000 0.500000
vt 0.375000 1.000000
vt 0.625000 0.750000
vt 0.875000 0.500000
vt 0.625000 0.750000
vt 0.375000 1.000000
vt 0.375000 0.750000
vt 0.375000 0.500000
vt 0.125000 0.750000
vt 0.125000 0.500000
vt 0.625000 0.500000
vt 0.625000 0.750000
vt 0.375000 1.000000
vt 0.625000 1.000000
vt 0.375000 1.000000
vt 0.625000 1.000000
vt 0.875000 0.750000
vt 0.625000 1.000000
vt 0.625000 1.000000
vt 0.625000 0.750000
vn 1.0000 -0.0000 0.0000
vn -0.0000 -1.0000 0.0000
vn 0.0000 0.0000 -1.0000
vn -0.0000 -0.0000 1.0000
vn -1.0000 -0.0000 -0.0000
vn 0.0000 1.0000 0.0000
usemtl None
s off
f 3/1/1 5/2/1 4/3/1
f 1/4/2 13/5/2 3/1/2
f 13/5/3 2/6/3 5/2/3
f 11/7/4 5/8/4 13/9/4
f 15/10/5 5/11/5 7/12/5
f 10/13/6 13/9/6 15/10/6
f 9/14/4 14/15/4 13/9/4
f 13/9/4 12/16/4 11/17/4
f 3/1/1 13/5/1 5/2/1
f 1/4/2 9/18/2 13/5/2
f 13/5/3 9/19/3 2/6/3
f 11/7/4 6/20/4 5/8/4
f 15/10/5 13/9/5 5/11/5
f 10/13/6 9/14/6 13/9/6
f 9/14/4 8/21/4 14/15/4
f 13/9/4 14/22/4 12/16/4
