# Blender v3.2.1 OBJ File: 'BlenderSource.blend'
# www.blender.org
mtllib 0110 1111.mtl
o 0110_1111_立方体.185
v -13.000000 0.000000 9.000000
v -13.000000 0.000000 8.000000
v -13.500000 0.000000 9.000000
v -13.500000 0.000000 8.000000
v -13.500000 0.500000 9.000000
v -13.500000 0.500000 8.000000
vt 0.375000 0.500000
vt 0.625000 0.750000
vt 0.625000 0.500000
vt 0.375000 1.000000
vt 0.375000 0.750000
vt 0.625000 1.000000
vn 1.0000 0.0000 0.0000
vn 0.0000 1.0000 -0.0000
usemtl None
s off
f 5/1/1 4/2/1 6/3/1
f 1/4/2 4/2/2 3/5/2
f 5/1/1 3/5/1 4/2/1
f 1/4/2 2/6/2 4/2/2
