# Blender v3.2.1 OBJ File: 'BlenderSource.blend'
# www.blender.org
mtllib 0110 0100.mtl
o 0110_0100_立方体.065
v -25.882206 -0.500000 14.000000
v -25.882206 -0.500000 14.500000
v -26.382206 -0.500000 14.000000
v -25.882206 0.500000 13.500000
v -25.882206 -0.000000 13.500000
v -26.382206 -0.000000 13.500000
v -25.882206 0.000000 14.500000
v -25.882206 0.500000 14.500000
v -25.882206 0.000000 14.000000
v -25.882206 0.500000 14.000000
v -26.382206 0.000000 14.000000
vt 0.375000 0.750000
vt 0.625000 1.000000
vt 0.375000 1.000000
vt 0.375000 0.500000
vt 0.125000 0.750000
vt 0.125000 0.500000
vt 0.625000 0.500000
vt 0.625000 0.750000
vt 0.375000 1.000000
vt 0.625000 1.000000
vt 0.375000 1.000000
vt 0.625000 0.750000
vt 0.625000 1.000000
vt 0.625000 0.750000
vn 1.0000 0.0000 0.0000
vn 0.0000 0.0000 -1.0000
vn -0.0000 -1.0000 0.0000
usemtl None
s off
f 9/1/1 2/2/1 1/3/1
f 11/4/2 1/5/2 3/6/2
f 6/7/3 9/1/3 11/4/3
f 5/8/1 10/9/1 9/1/1
f 9/1/1 8/10/1 7/11/1
f 9/1/1 7/12/1 2/2/1
f 11/4/2 9/1/2 1/5/2
f 6/7/3 5/8/3 9/1/3
f 5/8/1 4/13/1 10/9/1
f 9/1/1 10/14/1 8/10/1
