# Blender v3.2.1 OBJ File: 'BlenderSource.blend'
# www.blender.org
mtllib 0110 0000.mtl
o 0110_0000_立方体.018
v -0.000000 0.500000 0.500000
v -0.000000 0.500000 -0.500000
v -0.000000 0.000000 0.500000
v -0.000000 0.000000 -0.500000
v -0.500000 0.000000 0.500000
v -0.500000 0.000000 -0.500000
vt 0.625000 0.500000
vt 0.375000 0.750000
vt 0.375000 0.500000
vt 0.625000 1.000000
vt 0.375000 1.000000
vt 0.625000 0.750000
vn 0.0000 -1.0000 -0.0000
vn 1.0000 -0.0000 0.0000
usemtl None
s off
f 6/1/1 3/2/1 5/3/1
f 3/2/2 2/4/2 1/5/2
f 6/1/1 4/6/1 3/2/1
f 3/2/2 4/6/2 2/4/2
