# Blender v3.2.1 OBJ File: 'BlenderSource.blend'
# www.blender.org
mtllib 0111 0100.mtl
o 0111_0100_立方体.229
v -33.024239 -0.500000 4.627719
v -32.524239 -0.500000 4.627719
v -32.524239 -0.500000 5.127719
v -32.524239 0.000000 5.127719
v -32.524239 0.500000 5.127719
v -32.524239 -0.000000 4.627719
v -32.524239 -0.000000 4.127719
v -32.524239 0.500000 4.627719
v -32.024239 0.000000 4.627719
v -32.024239 0.000000 4.127719
v -32.024239 0.500000 4.627719
v -33.024239 -0.000000 4.627719
v -33.024239 -0.000000 4.127719
vt 0.625000 0.500000
vt 0.375000 0.750000
vt 0.375000 0.500000
vt 0.125000 0.750000
vt 0.125000 0.500000
vt 0.625000 0.500000
vt 0.375000 0.750000
vt 0.375000 0.500000
vt 0.375000 0.750000
vt 0.625000 1.000000
vt 0.625000 0.750000
vt 0.125000 0.750000
vt 0.375000 0.500000
vt 0.125000 0.500000
vt 0.375000 1.000000
vt 0.625000 0.750000
vt 0.625000 0.750000
vt 0.625000 0.750000
vt 0.375000 1.000000
vt 0.625000 1.000000
vn 1.0000 0.0000 0.0000
vn 0.0000 0.0000 -1.0000
vn 0.0000 -1.0000 0.0000
vn 0.0000 0.0000 1.0000
usemtl None
s off
f 4/1/1 2/2/1 6/3/1
f 6/3/2 1/4/2 12/5/2
f 5/6/1 6/7/1 8/8/1
f 9/9/3 7/10/3 10/11/3
f 6/12/4 11/13/4 8/14/4
f 12/15/3 7/16/3 6/7/3
f 4/1/1 3/17/1 2/2/1
f 6/3/2 2/2/2 1/4/2
f 5/6/1 4/18/1 6/7/1
f 9/9/3 6/19/3 7/10/3
f 6/12/4 9/9/4 11/13/4
f 12/15/3 13/20/3 7/16/3
