# WaveFront *.obj file (generated by Cinema 4D)

mtllib ./0111_0011.mtl

v 0.249484 -0.250186 -0.001015
v 0.499484 -0.250186 -0.001015
v 0.499484 -0.250186 0.248985
v 0.249484 -0.250186 0.248985
v 0.249484 -0.500186 -0.001015
v 0.499484 -0.500186 -0.001015
v 0.499484 -0.500186 0.248985
v 0.249484 -0.500186 0.248985
v 0.249484 -0.250186 0.248985
v 0.249484 -0.500186 0.248985
v 0.249484 -0.250186 -0.001015
v 0.249484 -0.500186 -0.001015
v 0.249484 -0.250186 -0.001015
v 0.249484 -0.500186 -0.001015
v 0.499484 -0.250186 -0.001015
v 0.499484 -0.500186 -0.001015
v 0.499484 -0.250186 -0.001015
v 0.499484 -0.500186 -0.001015
v 0.499484 -0.250186 0.248985
v 0.499484 -0.500186 0.248985
v 0.499484 -0.250186 0.248985
v 0.499484 -0.500186 0.248985
v 0.249484 -0.250186 0.248985
v 0.249484 -0.500186 0.248985
v -0.000516 -0.250186 -0.001015
v 0.249484 -0.250186 -0.001015
v 0.249484 -0.250186 0.248985
v -0.000516 -0.250186 0.248985
v -0.000516 -0.500186 -0.001015
v 0.249484 -0.500186 -0.001015
v 0.249484 -0.500186 0.248985
v -0.000516 -0.500186 0.248985
v -0.000516 -0.250186 0.248985
v -0.000516 -0.500186 0.248985
v -0.000516 -0.250186 -0.001015
v -0.000516 -0.500186 -0.001015
v -0.000516 -0.250186 -0.001015
v -0.000516 -0.500186 -0.001015
v 0.249484 -0.250186 -0.001015
v 0.249484 -0.500186 -0.001015
v 0.249484 -0.250186 -0.001015
v 0.249484 -0.500186 -0.001015
v 0.249484 -0.250186 0.248985
v 0.249484 -0.500186 0.248985
v 0.249484 -0.250186 0.248985
v 0.249484 -0.500186 0.248985
v -0.000516 -0.250186 0.248985
v -0.000516 -0.500186 0.248985
v -0.000516 -0.000186 -0.001015
v 0.249484 -0.000186 -0.001015
v 0.249484 -0.000186 0.248985
v -0.000516 -0.000186 0.248985
v -0.000516 -0.250186 -0.001015
v 0.249484 -0.250186 -0.001015
v 0.249484 -0.250186 0.248985
v -0.000516 -0.250186 0.248985
v -0.000516 -0.000186 0.248985
v -0.000516 -0.250186 0.248985
v -0.000516 -0.000186 -0.001015
v -0.000516 -0.250186 -0.001015
v -0.000516 -0.000186 -0.001015
v -0.000516 -0.250186 -0.001015
v 0.249484 -0.000186 -0.001015
v 0.249484 -0.250186 -0.001015
v 0.249484 -0.000186 -0.001015
v 0.249484 -0.250186 -0.001015
v 0.249484 -0.000186 0.248985
v 0.249484 -0.250186 0.248985
v 0.249484 -0.000186 0.248985
v 0.249484 -0.250186 0.248985
v -0.000516 -0.000186 0.248985
v -0.000516 -0.250186 0.248985
v 0.249484 -0.000186 -0.001015
v 0.499484 -0.000186 -0.001015
v 0.499484 -0.000186 0.248985
v 0.249484 -0.000186 0.248985
v 0.249484 -0.250186 -0.001015
v 0.499484 -0.250186 -0.001015
v 0.499484 -0.250186 0.248985
v 0.249484 -0.250186 0.248985
v 0.249484 -0.000186 0.248985
v 0.249484 -0.250186 0.248985
v 0.249484 -0.000186 -0.001015
v 0.249484 -0.250186 -0.001015
v 0.249484 -0.000186 -0.001015
v 0.249484 -0.250186 -0.001015
v 0.499484 -0.000186 -0.001015
v 0.499484 -0.250186 -0.001015
v 0.499484 -0.000186 -0.001015
v 0.499484 -0.250186 -0.001015
v 0.499484 -0.000186 0.248985
v 0.499484 -0.250186 0.248985
v 0.499484 -0.000186 0.248985
v 0.499484 -0.250186 0.248985
v 0.249484 -0.000186 0.248985
v 0.249484 -0.250186 0.248985
v -0.250602 -0.250186 0.248985
v -0.250602 -0.000186 0.248985
v -0.000602 -0.250186 0.248985
v -0.000602 -0.000186 0.248985
v -0.000602 -0.250186 0.248985
v -0.000602 -0.000186 0.248985
v -0.000602 -0.250186 -0.001015
v -0.000602 -0.000186 -0.001015
v -0.000602 -0.250186 -0.001015
v -0.000602 -0.000186 -0.001015
v -0.250602 -0.250186 -0.001015
v -0.250602 -0.000186 -0.001015
v -0.250602 -0.250186 -0.001015
v -0.250602 -0.000186 -0.001015
v -0.250602 -0.250186 0.248985
v -0.250602 -0.000186 0.248985
v -0.250602 -0.250186 0.248985
v -0.000602 -0.250186 0.248985
v -0.000602 -0.250186 -0.001015
v -0.250602 -0.250186 -0.001015
v -0.250602 -0.000186 0.248985
v -0.000602 -0.000186 0.248985
v -0.000602 -0.000186 -0.001015
v -0.250602 -0.000186 -0.001015
v -0.500602 -0.250186 0.248985
v -0.500602 -0.000186 0.248985
v -0.250602 -0.250186 0.248985
v -0.250602 -0.000186 0.248985
v -0.250602 -0.250186 0.248985
v -0.250602 -0.000186 0.248985
v -0.250602 -0.250186 -0.001015
v -0.250602 -0.000186 -0.001015
v -0.250602 -0.250186 -0.001015
v -0.250602 -0.000186 -0.001015
v -0.500602 -0.250186 -0.001015
v -0.500602 -0.000186 -0.001015
v -0.500602 -0.250186 -0.001015
v -0.500602 -0.000186 -0.001015
v -0.500602 -0.250186 0.248985
v -0.500602 -0.000186 0.248985
v -0.500602 -0.250186 0.248985
v -0.250602 -0.250186 0.248985
v -0.250602 -0.250186 -0.001015
v -0.500602 -0.250186 -0.001015
v -0.500602 -0.000186 0.248985
v -0.250602 -0.000186 0.248985
v -0.250602 -0.000186 -0.001015
v -0.500602 -0.000186 -0.001015
v -0.500602 -0.500186 0.248985
v -0.500602 -0.250186 0.248985
v -0.250602 -0.500186 0.248985
v -0.250602 -0.250186 0.248985
v -0.250602 -0.500186 0.248985
v -0.250602 -0.250186 0.248985
v -0.250602 -0.500186 -0.001015
v -0.250602 -0.250186 -0.001015
v -0.250602 -0.500186 -0.001015
v 0.209137 -0.253288 0.244691
v 0.209137 -0.262220 0.241477
v 0.209137 -0.271702 0.241925
v 0.215310 -0.256815 0.243760
v 0.213382 -0.256525 0.243059
v 0.215310 -0.265834 0.241965
v 0.213382 -0.265834 0.241207
v 0.215310 -0.274854 0.243760
v 0.213382 -0.275144 0.243059
v 0.249484 0.249597 -0.001015
v 0.499484 0.249597 -0.001015
v 0.499484 0.249597 0.248985
v 0.249484 0.249597 0.248985
v 0.249484 -0.000403 -0.001015
v 0.499484 -0.000403 -0.001015
v 0.499484 -0.000403 0.248985
v 0.249484 -0.000403 0.248985
v 0.249484 0.249597 0.248985
v 0.249484 -0.000403 0.248985
v 0.249484 0.249597 -0.001015
v 0.249484 -0.000403 -0.001015
v 0.249484 0.249597 -0.001015
v 0.249484 -0.000403 -0.001015
v 0.499484 0.249597 -0.001015
v 0.499484 -0.000403 -0.001015
v 0.499484 0.249597 -0.001015
v 0.499484 -0.000403 -0.001015
v 0.499484 0.249597 0.248985
v 0.499484 -0.000403 0.248985
v 0.499484 0.249597 0.248985
v 0.499484 -0.000403 0.248985
v 0.249484 0.249597 0.248985
v 0.249484 -0.000403 0.248985
v -0.000516 0.249597 -0.001015
v 0.249484 0.249597 -0.001015
v 0.249484 0.249597 0.248985
v -0.000516 0.249597 0.248985
v -0.000516 -0.000403 -0.001015
v 0.249484 -0.000403 -0.001015
v 0.249484 -0.000403 0.248985
v -0.000516 -0.000403 0.248985
v -0.000516 0.249597 0.248985
v -0.000516 -0.000403 0.248985
v -0.000516 0.249597 -0.001015
v -0.000516 -0.000403 -0.001015
v -0.000516 0.249597 -0.001015
v -0.000516 -0.000403 -0.001015
v 0.249484 0.249597 -0.001015
v 0.249484 -0.000403 -0.001015
v 0.249484 0.249597 -0.001015
v 0.249484 -0.000403 -0.001015
v 0.249484 0.249597 0.248985
v 0.249484 -0.000403 0.248985
v 0.249484 0.249597 0.248985
v 0.249484 -0.000403 0.248985
v -0.000516 0.249597 0.248985
v -0.000516 -0.000403 0.248985
v -0.000516 0.499597 -0.001015
v 0.249484 0.499597 -0.001015
v 0.249484 0.499597 0.248985
v -0.000516 0.499597 0.248985
v -0.000516 0.249597 -0.001015
v 0.249484 0.249597 -0.001015
v 0.249484 0.249597 0.248985
v -0.000516 0.249597 0.248985
v -0.000516 0.499597 0.248985
v -0.000516 0.249597 0.248985
v -0.000516 0.499597 -0.001015
v -0.000516 0.249597 -0.001015
v -0.000516 0.499597 -0.001015
v -0.000516 0.249597 -0.001015
v 0.249484 0.499597 -0.001015
v 0.249484 0.249597 -0.001015
v 0.249484 0.499597 -0.001015
v 0.249484 0.249597 -0.001015
v 0.249484 0.499597 0.248985
v 0.249484 0.249597 0.248985
v 0.249484 0.499597 0.248985
v 0.249484 0.249597 0.248985
v -0.000516 0.499597 0.248985
v -0.000516 0.249597 0.248985
v 0.249484 0.499597 -0.001015
v 0.499484 0.499597 -0.001015
v 0.499484 0.499597 0.248985
v 0.249484 0.499597 0.248985
v 0.249484 0.249597 -0.001015
v 0.499484 0.249597 -0.001015
v 0.499484 0.249597 0.248985
v 0.249484 0.249597 0.248985
v 0.249484 0.499597 0.248985
v 0.249484 0.249597 0.248985
v 0.249484 0.499597 -0.001015
v 0.249484 0.249597 -0.001015
v 0.249484 0.499597 -0.001015
v 0.249484 0.249597 -0.001015
v 0.499484 0.499597 -0.001015
v 0.499484 0.249597 -0.001015
v 0.499484 0.499597 -0.001015
v 0.499484 0.249597 -0.001015
v 0.499484 0.499597 0.248985
v 0.499484 0.249597 0.248985
v 0.499484 0.499597 0.248985
v 0.499484 0.249597 0.248985
v 0.249484 0.499597 0.248985
v 0.249484 0.249597 0.248985
v -0.250602 -0.250186 -0.001015
v -0.000602 -0.250186 -0.001015
v -0.000602 -0.250186 0.248985
v -0.250602 -0.250186 0.248985
v -0.250602 -0.500186 -0.001015
v -0.000602 -0.500186 -0.001015
v -0.000602 -0.500186 0.248985
v -0.250602 -0.500186 0.248985
v -0.250602 -0.250186 0.248985
v -0.250602 -0.500186 0.248985
v -0.250602 -0.250186 -0.001015
v -0.250602 -0.500186 -0.001015
v -0.250602 -0.250186 -0.001015
v -0.250602 -0.500186 -0.001015
v -0.000602 -0.250186 -0.001015
v -0.000602 -0.500186 -0.001015
v -0.000602 -0.250186 -0.001015
v -0.000602 -0.500186 -0.001015
v -0.000602 -0.250186 0.248985
v -0.000602 -0.500186 0.248985
v -0.000602 -0.250186 0.248985
v -0.000602 -0.500186 0.248985
v -0.250602 -0.250186 0.248985
v -0.250602 -0.500186 0.248985
v -0.500602 -0.250186 -0.001015
v -0.250602 -0.250186 -0.001015
v -0.250602 -0.250186 0.248985
v -0.500602 -0.250186 0.248985
v -0.500602 -0.500186 -0.001015
v -0.250602 -0.500186 -0.001015
v -0.250602 -0.500186 0.248985
v -0.500602 -0.500186 0.248985
v -0.500602 -0.250186 0.248985
v -0.500602 -0.500186 0.248985
v -0.500602 -0.250186 -0.001015
v -0.500602 -0.500186 -0.001015
v -0.500602 -0.250186 -0.001015
v -0.500602 -0.500186 -0.001015
v -0.250602 -0.250186 -0.001015
# 297 vertices

vn 0.000000 1.000000 0.000000
vn 0.000000 -1.000000 0.000000
vn -1.000000 0.000000 0.000000
vn 0.000000 0.000000 -1.000000
vn 1.000000 0.000000 0.000000
vn 0.000000 0.000000 1.000000
vn 0.000000 -0.121469 -0.992594
vn 0.000000 0.267563 -0.963500
vn 0.360063 0.181938 -0.914906
vn 0.360031 0.181938 -0.914906
vn 0.360063 -0.181938 -0.914906
vn 0.360031 -0.181938 -0.914906
# 12 normals

vt 1.000000 1.000000 0.000000
vt 1.000000 0.666667 0.000000
vt 0.750000 1.000000 0.000000
vt 0.000000 1.000000 0.000000
vt 0.750000 0.666667 0.000000
vt 0.250000 1.000000 0.000000
vt 0.250000 0.666667 0.000000
vt 0.000000 0.666667 0.000000
vt 0.750000 0.666666 0.000000
vt 1.000000 0.666666 0.000000
vt 0.750000 0.000000 0.000000
vt 1.000000 0.000000 0.000000
vt 0.500000 0.666666 0.000000
vt 0.500000 0.000000 0.000000
vt 0.250000 0.666666 0.000000
vt 0.250000 0.000000 0.000000
vt 0.000000 0.666666 0.000000
vt 0.000000 0.000000 0.000000
# 18 texture coordinates

o 0111_0011
usemtl putongde
f 1/3/1 3/2/1 2/1/1
f 3/2/1 1/3/1 4/5/1
f 5/8/2 6/7/2 7/6/2
f 7/6/2 8/4/2 5/8/2
f 12/11/3 9/10/3 11/9/3
f 12/11/3 10/12/3 9/10/3
f 16/14/4 13/9/4 15/13/4
f 16/14/4 14/11/4 13/9/4
f 20/16/5 17/13/5 19/15/5
f 20/16/5 18/14/5 17/13/5
f 24/18/6 21/15/6 23/17/6
f 24/18/6 22/16/6 21/15/6
f 25/3/1 27/2/1 26/1/1
f 27/2/1 25/3/1 28/5/1
f 29/8/2 30/7/2 31/6/2
f 31/6/2 32/4/2 29/8/2
f 36/11/3 33/10/3 35/9/3
f 36/11/3 34/12/3 33/10/3
f 40/14/4 37/9/4 39/13/4
f 40/14/4 38/11/4 37/9/4
f 44/16/5 41/13/5 43/15/5
f 44/16/5 42/14/5 41/13/5
f 48/18/6 45/15/6 47/17/6
f 48/18/6 46/16/6 45/15/6
f 49/3/1 51/2/1 50/1/1
f 51/2/1 49/3/1 52/5/1
f 53/8/2 54/7/2 55/6/2
f 55/6/2 56/4/2 53/8/2
f 60/11/3 57/10/3 59/9/3
f 60/11/3 58/12/3 57/10/3
f 64/14/4 61/9/4 63/13/4
f 64/14/4 62/11/4 61/9/4
f 68/16/5 65/13/5 67/15/5
f 68/16/5 66/14/5 65/13/5
f 72/18/6 69/15/6 71/17/6
f 72/18/6 70/16/6 69/15/6
f 73/3/1 75/2/1 74/1/1
f 75/2/1 73/3/1 76/5/1
f 77/8/2 78/7/2 79/6/2
f 79/6/2 80/4/2 77/8/2
f 84/11/3 81/10/3 83/9/3
f 84/11/3 82/12/3 81/10/3
f 88/14/4 85/9/4 87/13/4
f 88/14/4 86/11/4 85/9/4
f 92/16/5 89/13/5 91/15/5
f 92/16/5 90/14/5 89/13/5
f 96/18/6 93/15/6 95/17/6
f 96/18/6 94/16/6 93/15/6
f 97/18/6 99/16/6 100/15/6
f 97/18/6 100/15/6 98/17/6
f 101/16/5 103/14/5 104/13/5
f 101/16/5 104/13/5 102/15/5
f 105/14/4 107/11/4 108/9/4
f 105/14/4 108/9/4 106/13/4
f 109/11/3 111/12/3 112/10/3
f 109/11/3 112/10/3 110/9/3
f 114/6/2 113/4/2 116/8/2
f 116/8/2 115/7/2 114/6/2
f 118/2/1 120/3/1 117/5/1
f 120/3/1 118/2/1 119/1/1
f 121/18/6 123/16/6 124/15/6
f 121/18/6 124/15/6 122/17/6
f 125/16/5 127/14/5 128/13/5
f 125/16/5 128/13/5 126/15/5
f 129/14/4 131/11/4 132/9/4
f 129/14/4 132/9/4 130/13/4
f 133/11/3 135/12/3 136/10/3
f 133/11/3 136/10/3 134/9/3
f 138/6/2 137/4/2 140/8/2
f 140/8/2 139/7/2 138/6/2
f 142/2/1 144/3/1 141/5/1
f 144/3/1 142/2/1 143/1/1
f 145/18/6 147/16/6 148/15/6
f 145/18/6 148/15/6 146/17/6
f 149/16/5 151/14/5 152/13/5
f 149/16/5 152/13/5 150/15/5
f 153/14/4 296/11/4 295/9/4
f 153/14/4 295/9/4 297/13/4
f 294/11/3 292/12/3 291/10/3
f 294/11/3 291/10/3 293/9/3
f 289/6/2 290/4/2 287/8/2
f 287/8/2 288/7/2 289/6/2
f 285/2/1 283/3/1 286/5/1
f 283/3/1 285/2/1 284/1/1
f 163/3/1 165/2/1 164/1/1
f 165/2/1 163/3/1 166/5/1
f 167/8/2 168/7/2 169/6/2
f 169/6/2 170/4/2 167/8/2
f 174/11/3 171/10/3 173/9/3
f 174/11/3 172/12/3 171/10/3
f 178/14/4 175/9/4 177/13/4
f 178/14/4 176/11/4 175/9/4
f 182/16/5 179/13/5 181/15/5
f 182/16/5 180/14/5 179/13/5
f 186/18/6 183/15/6 185/17/6
f 186/18/6 184/16/6 183/15/6
f 187/3/1 189/2/1 188/1/1
f 189/2/1 187/3/1 190/5/1
f 191/8/2 192/7/2 193/6/2
f 193/6/2 194/4/2 191/8/2
f 198/11/3 195/10/3 197/9/3
f 198/11/3 196/12/3 195/10/3
f 202/14/4 199/9/4 201/13/4
f 202/14/4 200/11/4 199/9/4
f 206/16/5 203/13/5 205/15/5
f 206/16/5 204/14/5 203/13/5
f 210/18/6 207/15/6 209/17/6
f 210/18/6 208/16/6 207/15/6
f 211/3/1 213/2/1 212/1/1
f 213/2/1 211/3/1 214/5/1
f 215/8/2 216/7/2 217/6/2
f 217/6/2 218/4/2 215/8/2
f 222/11/3 219/10/3 221/9/3
f 222/11/3 220/12/3 219/10/3
f 226/14/4 223/9/4 225/13/4
f 226/14/4 224/11/4 223/9/4
f 230/16/5 227/13/5 229/15/5
f 230/16/5 228/14/5 227/13/5
f 234/18/6 231/15/6 233/17/6
f 234/18/6 232/16/6 231/15/6
f 235/3/1 237/2/1 236/1/1
f 237/2/1 235/3/1 238/5/1
f 239/8/2 240/7/2 241/6/2
f 241/6/2 242/4/2 239/8/2
f 246/11/3 243/10/3 245/9/3
f 246/11/3 244/12/3 243/10/3
f 250/14/4 247/9/4 249/13/4
f 250/14/4 248/11/4 247/9/4
f 254/16/5 251/13/5 253/15/5
f 254/16/5 252/14/5 251/13/5
f 258/18/6 255/15/6 257/17/6
f 258/18/6 256/16/6 255/15/6
f 259/3/1 261/2/1 260/1/1
f 261/2/1 259/3/1 262/5/1
f 263/8/2 264/7/2 265/6/2
f 265/6/2 266/4/2 263/8/2
f 270/11/3 267/10/3 269/9/3
f 270/11/3 268/12/3 267/10/3
f 274/14/4 271/9/4 273/13/4
f 274/14/4 272/11/4 271/9/4
f 278/16/5 275/13/5 277/15/5
f 278/16/5 276/14/5 275/13/5
f 282/18/6 279/15/6 281/17/6
f 282/18/6 280/16/6 279/15/6

usemtl Material.003
f 162/18/7 156/18/7 155/18/7 160/18/7
f 160/18/8 155/18/8 154/18/8 158/18/8
f 157/18/10 159/18/9 160/18/9 158/18/9
f 159/18/11 161/18/12 162/18/11 160/18/11

