# Blender v3.2.1 OBJ File: 'BlenderSource.blend'
# www.blender.org
mtllib 1010 0101.mtl
o 1010_0101_立方体.134
v -31.020605 -0.000000 10.957306
v -31.020605 -0.500000 10.957306
v -30.520618 -0.000000 10.960939
v -30.524252 -0.500000 11.460926
v -31.024239 -0.000000 11.957293
v -31.024239 -0.500000 11.957293
v -31.524239 -0.000000 11.957293
v -31.024239 -0.500000 11.457293
v -31.524239 -0.000000 11.457293
v -31.524239 -0.500000 11.457293
v -30.524252 0.000000 11.460926
v -30.524252 0.500000 11.460926
v -30.527885 0.000000 11.960913
v -31.027872 0.000000 11.957279
v -31.027872 0.500000 11.957279
v -31.524239 0.500000 11.457293
v -31.524239 0.000000 10.957293
v -31.024239 0.000000 11.457293
v -31.024239 0.500000 11.457293
v -31.024239 0.000000 10.957293
v -31.024239 0.500000 10.957293
vt 0.375000 0.750000
vt 0.625000 0.500000
vt 0.375000 0.500000
vt 0.375000 1.000000
vt 0.625000 0.750000
vt 0.125000 0.750000
vt 0.125000 0.500000
vt 0.625000 0.500000
vt 0.375000 0.500000
vt 0.375000 1.000000
vt 0.125000 0.500000
vt 0.625000 0.500000
vt 0.375000 0.500000
vt 0.625000 0.750000
vt 0.375000 1.000000
vt 0.125000 0.750000
vt 0.125000 0.500000
vt 0.625000 0.500000
vt 0.375000 0.500000
vt 0.375000 1.000000
vt 0.125000 0.750000
vt 0.125000 0.500000
vt 0.625000 1.000000
vt 0.625000 1.000000
vt 0.125000 0.750000
vt 0.625000 1.000000
vt 0.625000 1.000000
vn -0.0073 0.0000 1.0000
vn -1.0000 0.0000 -0.0073
vn 0.0000 1.0000 -0.0000
vn 0.0000 0.0000 -1.0000
vn 1.0000 0.0000 0.0000
vn 0.0073 0.0000 -1.0000
vn 0.0000 -1.0000 0.0000
vn 0.0000 0.0000 1.0000
usemtl None
s off
f 18/1/1 4/2/1 11/3/1
f 1/4/2 8/5/2 18/1/2
f 1/6/3 11/3/3 3/7/3
f 18/1/4 10/8/4 9/9/4
f 5/10/5 8/5/5 18/1/5
f 7/11/3 18/1/3 9/9/3
f 15/12/2 18/1/2 14/13/2
f 19/14/6 11/15/6 18/1/6
f 14/13/7 11/16/7 13/17/7
f 21/18/5 18/1/5 20/19/5
f 19/14/8 9/20/8 18/1/8
f 20/19/7 9/21/7 17/22/7
f 18/1/1 8/5/1 4/2/1
f 1/4/2 2/23/2 8/5/2
f 1/6/3 18/1/3 11/3/3
f 18/1/4 8/5/4 10/8/4
f 5/10/5 6/24/5 8/5/5
f 7/11/3 5/25/3 18/1/3
f 15/12/2 19/14/2 18/1/2
f 19/14/6 12/26/6 11/15/6
f 14/13/7 18/1/7 11/16/7
f 21/18/5 19/14/5 18/1/5
f 19/14/8 16/27/8 9/20/8
f 20/19/7 18/1/7 9/21/7
