# Blender v3.2.1 OBJ File: 'BlenderSource.blend'
# www.blender.org
mtllib 1011 1101.mtl
o 1011_1101_立方体.196
v -12.000000 -0.003633 3.500013
v -12.500000 -0.003633 3.500013
v -12.000000 -0.503620 3.503647
v -12.000000 -0.499987 4.003633
v -12.500000 -0.499987 4.003633
v -12.000000 -0.000000 4.500000
v -12.500000 -0.000000 4.500000
v -12.000000 0.500000 4.500000
v -12.000000 -0.000000 4.000000
v -12.500000 -0.000000 4.000000
v -12.000000 0.500000 4.000000
v -12.500000 0.500000 4.000000
vt 0.625000 0.500000
vt 0.375000 0.750000
vt 0.375000 0.500000
vt 0.625000 0.750000
vt 0.375000 1.000000
vt 0.125000 0.750000
vt 0.125000 0.500000
vt 0.625000 0.500000
vt 0.375000 0.500000
vt 0.375000 1.000000
vt 0.125000 0.750000
vt 0.125000 0.500000
vt 0.625000 1.000000
vt 0.625000 1.000000
vn 0.0000 -0.0073 -1.0000
vn 0.0000 -1.0000 0.0073
vn -1.0000 0.0000 0.0000
vn 0.0000 0.0000 1.0000
vn 0.0000 1.0000 0.0000
usemtl None
s off
f 5/1/1 9/2/1 4/3/1
f 10/4/2 1/5/2 9/2/2
f 4/3/3 1/6/3 3/7/3
f 12/8/4 9/2/4 11/9/4
f 10/4/5 6/10/5 9/2/5
f 11/9/3 6/11/3 8/12/3
f 5/1/1 10/4/1 9/2/1
f 10/4/2 2/13/2 1/5/2
f 4/3/3 9/2/3 1/6/3
f 12/8/4 10/4/4 9/2/4
f 10/4/5 7/14/5 6/10/5
f 11/9/3 9/2/3 6/11/3
