# Blender v3.2.1 OBJ File: 'BlenderSource.blend'
# www.blender.org
mtllib 1011 0000.mtl
o 1011_0000_立方体.046
v -24.382206 -0.000000 20.000000
v -23.882206 -0.000000 20.000000
v -24.382206 0.500000 20.000000
v -24.882206 -0.000000 19.000000
v -24.882206 -0.000000 19.500000
v -24.882206 0.500000 19.500000
v -23.882206 -0.000000 19.500000
v -23.882206 -0.000000 19.000000
v -24.382206 -0.000000 19.500000
v -24.382206 -0.000000 19.000000
v -24.382206 0.500000 19.500000
vt 0.625000 0.750000
vt 0.375000 1.000000
vt 0.375000 0.750000
vt 0.375000 0.500000
vt 0.125000 0.750000
vt 0.125000 0.500000
vt 0.625000 0.500000
vt 0.625000 0.750000
vt 0.375000 1.000000
vt 0.625000 1.000000
vt 0.375000 1.000000
vt 0.625000 1.000000
vt 0.625000 1.000000
vt 0.625000 0.750000
vn -0.0000 -1.0000 -0.0000
vn -1.0000 0.0000 0.0000
vn 0.0000 0.0000 1.0000
usemtl None
s off
f 7/1/1 1/2/1 9/3/1
f 11/4/2 1/5/2 3/6/2
f 6/7/3 9/3/3 11/4/3
f 5/8/1 10/9/1 9/3/1
f 9/3/1 8/10/1 7/11/1
f 7/1/1 2/12/1 1/2/1
f 11/4/2 9/3/2 1/5/2
f 6/7/3 5/8/3 9/3/3
f 5/8/1 4/13/1 10/9/1
f 9/3/1 10/14/1 8/10/1
