# Blender v3.2.1 OBJ File: 'BlenderSource.blend'
# www.blender.org
mtllib 1101 1111.mtl
o 1101_1111_立方体.210
v -0.000000 -0.000000 -0.500000
v -0.500000 -0.000000 -0.500000
v -0.000000 0.500000 -0.500000
v -0.000000 -0.000000 -0.000000
v -0.500000 -0.000000 -0.000000
v -0.000000 0.500000 -0.000000
v -0.500000 0.500000 -0.000000
vt 0.375000 0.750000
vt 0.625000 0.500000
vt 0.375000 0.500000
vt 0.375000 1.000000
vt 0.625000 0.750000
vt 0.125000 0.500000
vt 0.625000 1.000000
vt 0.125000 0.750000
vn 0.0000 -0.0000 -1.0000
vn -0.0000 1.0000 -0.0000
vn -1.0000 0.0000 -0.0000
usemtl None
s off
f 4/1/1 7/2/1 6/3/1
f 1/4/2 5/5/2 4/1/2
f 3/6/3 4/1/3 6/3/3
f 4/1/1 5/5/1 7/2/1
f 1/4/2 2/7/2 5/5/2
f 3/6/3 1/8/3 4/1/3
