# Blender v3.2.1 OBJ File: 'BlenderSource.blend'
# www.blender.org
mtllib 1110 1101.mtl
o 1110_1101_立方体.201
v -0.003634 -0.499987 -0.000000
v -0.003634 -0.499987 -0.500000
v -0.503620 -0.496353 -0.000000
v -0.499987 0.003633 0.000000
v -0.499987 0.003633 -0.500000
v -0.000000 0.500000 -0.000000
v -0.000000 0.500000 -0.500000
v 0.500000 0.500000 -0.000000
v -0.000000 0.000000 -0.000000
v -0.000000 0.000000 -0.500000
v 0.500000 0.000000 -0.000000
v 0.500000 0.000000 -0.500000
vt 0.625000 0.500000
vt 0.375000 0.750000
vt 0.375000 0.500000
vt 0.625000 1.000000
vt 0.375000 1.000000
vt 0.125000 0.750000
vt 0.125000 0.500000
vt 0.625000 0.500000
vt 0.375000 0.500000
vt 0.625000 0.750000
vt 0.375000 1.000000
vt 0.125000 0.750000
vt 0.125000 0.500000
vt 0.625000 1.000000
vn -0.0073 -1.0000 -0.0000
vn -1.0000 0.0073 0.0000
vn -0.0000 0.0000 -1.0000
vn 0.0000 1.0000 0.0000
vn 1.0000 -0.0000 -0.0000
usemtl None
s off
f 5/1/1 9/2/1 4/3/1
f 9/2/2 2/4/2 1/5/2
f 4/3/3 1/6/3 3/7/3
f 12/8/4 9/2/4 11/9/4
f 10/10/5 6/11/5 9/2/5
f 11/9/3 6/12/3 8/13/3
f 5/1/1 10/10/1 9/2/1
f 9/2/2 10/10/2 2/4/2
f 4/3/3 9/2/3 1/6/3
f 12/8/4 10/10/4 9/2/4
f 10/10/5 7/14/5 6/11/5
f 11/9/3 9/2/3 6/12/3
