# WaveFront *.obj file (generated by Cinema 4D)

mtllib ./1110_1111.mtl

v 0.146109 0.004496 -0.524458
v 0.146109 0.213514 -0.524458
v 0.146109 0.004496 -0.464708
v 0.146109 0.213514 -0.464708
v 0.327232 0.004496 -0.464708
v 0.327232 0.213514 -0.464708
v 0.327232 0.004496 -0.524458
v 0.327232 0.213514 -0.524458
v 0.105759 0.277559 -0.524458
v 0.105759 0.380620 -0.524458
v 0.105759 0.277559 -0.464708
v 0.105759 0.380620 -0.464708
v 0.200116 0.277559 -0.464708
v 0.200116 0.380620 -0.464708
v 0.200116 0.277559 -0.524458
v 0.200116 0.380620 -0.524458
v 0.286893 0.277559 -0.524458
v 0.286893 0.380620 -0.524458
v 0.286893 0.277559 -0.464708
v 0.286893 0.380620 -0.464708
v 0.381250 0.277559 -0.464708
v 0.381250 0.380620 -0.464708
v 0.381250 0.277559 -0.524458
v 0.381250 0.380620 -0.524458
v 0.244120 0.000000 -0.502382
v 0.244120 0.250000 -0.502382
v 0.244120 0.000000 -0.252382
v 0.244120 0.250000 -0.252382
v 0.244120 0.000000 -0.252382
v 0.244120 0.250000 -0.252382
v 0.494120 0.000000 -0.252382
v 0.494120 0.250000 -0.252382
v 0.494120 0.000000 -0.252382
v 0.494120 0.250000 -0.252382
v 0.494120 0.000000 -0.502382
v 0.494120 0.250000 -0.502382
v 0.494120 0.000000 -0.502382
v 0.494120 0.250000 -0.502382
v 0.244120 0.000000 -0.502382
v 0.244120 0.250000 -0.502382
v 0.244120 0.000000 -0.502382
v 0.244120 0.000000 -0.252382
v 0.494120 0.000000 -0.252382
v 0.494120 0.000000 -0.502382
v 0.244120 0.250000 -0.502382
v 0.244120 0.250000 -0.252382
v 0.494120 0.250000 -0.252382
v 0.494120 0.250000 -0.502382
v -0.005880 0.250000 -0.502382
v -0.005880 0.500000 -0.502382
v -0.005880 0.250000 -0.252382
v -0.005880 0.500000 -0.252382
v -0.005880 0.250000 -0.252382
v -0.005880 0.500000 -0.252382
v 0.244120 0.250000 -0.252382
v 0.244120 0.500000 -0.252382
v 0.244120 0.250000 -0.252382
v 0.244120 0.500000 -0.252382
v 0.244120 0.250000 -0.502382
v 0.244120 0.500000 -0.502382
v 0.244120 0.250000 -0.502382
v 0.244120 0.500000 -0.502382
v -0.005880 0.250000 -0.502382
v -0.005880 0.500000 -0.502382
v -0.005880 0.250000 -0.502382
v -0.005880 0.250000 -0.252382
v 0.244120 0.250000 -0.252382
v 0.244120 0.250000 -0.502382
v -0.005880 0.500000 -0.502382
v -0.005880 0.500000 -0.252382
v 0.244120 0.500000 -0.252382
v 0.244120 0.500000 -0.502382
v 0.244120 0.250000 -0.502382
v 0.244120 0.500000 -0.502382
v 0.244120 0.250000 -0.252382
v 0.244120 0.500000 -0.252382
v 0.244120 0.250000 -0.252382
v 0.244120 0.500000 -0.252382
v 0.494120 0.250000 -0.252382
v 0.494120 0.500000 -0.252382
v 0.494120 0.250000 -0.252382
v 0.494120 0.500000 -0.252382
v 0.494120 0.250000 -0.502382
v 0.494120 0.500000 -0.502382
v 0.494120 0.250000 -0.502382
v 0.494120 0.500000 -0.502382
v 0.244120 0.250000 -0.502382
v 0.244120 0.500000 -0.502382
v 0.244120 0.250000 -0.502382
v 0.244120 0.250000 -0.252382
v 0.494120 0.250000 -0.252382
v 0.494120 0.250000 -0.502382
v 0.244120 0.500000 -0.502382
v 0.244120 0.500000 -0.252382
v 0.494120 0.500000 -0.252382
v 0.494120 0.500000 -0.502382
v 0.244120 0.250000 -0.252382
v 0.244120 0.500000 -0.252382
v 0.244120 0.250000 -0.002382
v 0.244120 0.500000 -0.002382
v 0.244120 0.250000 -0.002382
v 0.244120 0.500000 -0.002382
v 0.494120 0.250000 -0.002382
v 0.494120 0.500000 -0.002382
v 0.494120 0.250000 -0.002382
v 0.494120 0.500000 -0.002382
v 0.494120 0.250000 -0.252382
v 0.494120 0.500000 -0.252382
v 0.494120 0.250000 -0.252382
v 0.494120 0.500000 -0.252382
v 0.244120 0.250000 -0.252382
v 0.244120 0.500000 -0.252382
v 0.244120 0.250000 -0.252382
v 0.244120 0.250000 -0.002382
v 0.494120 0.250000 -0.002382
v 0.494120 0.250000 -0.252382
v 0.244120 0.500000 -0.252382
v 0.244120 0.500000 -0.002382
v 0.494120 0.500000 -0.002382
v 0.494120 0.500000 -0.252382
v 0.244120 0.000000 -0.252382
v 0.244120 0.250000 -0.252382
v 0.244120 0.000000 -0.002382
v 0.244120 0.250000 -0.002382
v 0.244120 0.000000 -0.002382
v 0.244120 0.250000 -0.002382
v 0.494120 0.000000 -0.002382
v 0.494120 0.250000 -0.002382
v 0.494120 0.000000 -0.002382
v 0.494120 0.250000 -0.002382
v 0.494120 0.000000 -0.252382
v 0.494120 0.250000 -0.252382
v 0.494120 0.000000 -0.252382
v 0.494120 0.250000 -0.252382
v 0.244120 0.000000 -0.252382
v 0.244120 0.250000 -0.252382
v 0.244120 0.000000 -0.252382
v 0.244120 0.000000 -0.002382
v 0.494120 0.000000 -0.002382
v 0.494120 0.000000 -0.252382
v 0.244120 0.250000 -0.252382
v 0.244120 0.250000 -0.002382
v 0.494120 0.250000 -0.002382
v 0.494120 0.250000 -0.252382
v -0.005880 0.000000 -0.502382
v -0.005880 0.250000 -0.502382
v -0.005880 0.000000 -0.252382
v -0.005880 0.250000 -0.252382
v -0.005880 0.000000 -0.252382
v -0.005880 0.250000 -0.252382
v 0.244120 0.000000 -0.252382
v 0.244120 0.250000 -0.252382
v 0.244120 0.000000 -0.252382
v 0.244120 0.250000 -0.252382
v 0.244120 0.000000 -0.502382
v 0.244120 0.250000 -0.502382
v 0.244120 0.000000 -0.502382
v 0.244120 0.250000 -0.502382
v -0.005880 0.000000 -0.502382
v -0.005880 0.250000 -0.502382
v -0.005880 0.000000 -0.502382
v -0.005880 0.000000 -0.252382
v 0.244120 0.000000 -0.252382
v 0.244120 0.000000 -0.502382
v -0.005880 0.250000 -0.502382
v -0.005880 0.250000 -0.252382
v 0.244120 0.250000 -0.252382
v 0.244120 0.250000 -0.502382
v -0.005880 0.000000 -0.252382
v -0.005880 0.250000 -0.252382
v -0.005880 0.000000 -0.002382
v -0.005880 0.250000 -0.002382
v -0.005880 0.000000 -0.002382
v -0.005880 0.250000 -0.002382
v 0.244120 0.000000 -0.002382
v 0.244120 0.250000 -0.002382
v 0.244120 0.000000 -0.002382
v 0.244120 0.250000 -0.002382
v 0.244120 0.000000 -0.252382
v 0.244120 0.250000 -0.252382
v 0.244120 0.000000 -0.252382
v 0.244120 0.250000 -0.252382
v -0.005880 0.000000 -0.252382
v -0.005880 0.250000 -0.252382
v -0.005880 0.000000 -0.252382
v -0.005880 0.000000 -0.002382
v 0.244120 0.000000 -0.002382
v 0.244120 0.000000 -0.252382
v -0.005880 0.250000 -0.252382
v -0.005880 0.250000 -0.002382
v 0.244120 0.250000 -0.002382
v 0.244120 0.250000 -0.252382
v -0.005880 0.250000 -0.252382
v -0.005880 0.500000 -0.252382
v -0.005880 0.250000 -0.002382
v -0.005880 0.500000 -0.002382
v -0.005880 0.250000 -0.002382
v -0.005880 0.500000 -0.002382
v 0.244120 0.250000 -0.002382
v 0.244120 0.500000 -0.002382
v 0.244120 0.250000 -0.002382
v 0.244120 0.500000 -0.002382
v 0.244120 0.250000 -0.252382
v 0.244120 0.500000 -0.252382
v 0.244120 0.250000 -0.252382
v 0.244120 0.500000 -0.252382
v -0.005880 0.250000 -0.252382
v -0.005880 0.500000 -0.252382
v -0.005880 0.250000 -0.252382
v -0.005880 0.250000 -0.002382
v 0.244120 0.250000 -0.002382
v 0.244120 0.250000 -0.252382
v -0.005880 0.500000 -0.252382
v -0.005880 0.500000 -0.002382
v 0.244120 0.500000 -0.002382
v 0.244120 0.500000 -0.252382
# 216 vertices

vn -1.000000 0.000000 0.000000
vn 0.000000 0.000000 1.000000
vn 1.000000 0.000000 0.000000
vn 0.000000 0.000000 -1.000000
vn 0.000000 1.000000 0.000000
vn 0.000000 -1.000000 0.000000
vn 0.000000 0.000000 1.000000
vn 1.000000 0.000000 0.000000
vn 0.000000 -1.000000 0.000000
vn 0.000000 1.000000 0.000000
vn 0.000000 1.000000 0.000000
vn -1.000000 0.000000 0.000000
# 12 normals

vt 0.000000 0.000000 0.000000
vt 0.000000 1.000000 0.000000
vt 1.000000 1.000000 0.000000
vt 1.000000 0.000000 0.000000
vt 0.250000 0.666666 0.000000
vt 0.250000 0.000000 0.000000
vt 0.000000 0.666666 0.000000
vt 0.500000 0.666666 0.000000
vt 0.500000 0.000000 0.000000
vt 0.750000 0.666666 0.000000
vt 0.750000 0.000000 0.000000
vt 1.000000 0.666666 0.000000
vt 0.000000 0.666667 0.000000
vt 0.250000 1.000000 0.000000
vt 0.250000 0.666667 0.000000
vt 0.750000 0.666667 0.000000
vt 0.750000 1.000000 0.000000
vt 1.000000 0.666667 0.000000
# 18 texture coordinates

o 1110_1111
usemtl men
f 3/4/1 4/3/1 2/2/1 1/1/1
f 5/4/2 6/3/2 4/2/2 3/1/2
f 7/4/3 8/3/3 6/2/3 5/1/3
f 1/4/4 2/3/4 8/2/4 7/1/4
f 4/4/5 6/3/5 8/2/5 2/1/5
f 5/4/6 3/3/6 1/2/6 7/1/6

usemtl windows1
f 11/4/1 12/3/1 10/2/1 9/1/1
f 13/4/2 14/3/2 12/2/2 11/1/2
f 15/4/3 16/3/3 14/2/3 13/1/3
f 9/4/4 10/3/4 16/2/4 15/1/4
f 12/4/5 14/3/5 16/2/5 10/1/5
f 13/4/6 11/3/6 9/2/6 15/1/6
f 19/4/1 20/3/1 18/2/1 17/1/1
f 21/4/2 22/3/2 20/2/2 19/1/2
f 23/4/3 24/3/3 22/2/3 21/1/3
f 17/4/4 18/3/4 24/2/4 23/1/4
f 20/4/5 22/3/5 24/2/5 18/1/5
f 21/4/6 19/3/6 17/2/6 23/1/6

usemtl chai
f 25/1/1 27/6/1 28/5/1
f 25/1/1 28/5/1 26/7/1
f 29/6/2 31/9/7 32/8/2
f 29/6/2 32/8/2 30/5/2
f 33/9/3 35/11/3 36/10/3
f 33/9/3 36/10/3 34/8/8
f 37/11/4 39/4/4 40/12/4
f 37/11/4 40/12/4 38/10/4
f 42/14/6 41/2/9 44/13/6
f 44/13/6 43/15/6 42/14/6
f 46/18/5 48/17/5 45/16/10
f 48/17/5 46/18/5 47/3/11
f 49/1/1 51/6/1 52/5/1
f 49/1/1 52/5/1 50/7/12
f 53/6/2 55/9/7 56/8/2
f 53/6/2 56/8/2 54/5/2
f 57/9/3 59/11/3 60/10/3
f 57/9/3 60/10/3 58/8/8
f 61/11/4 63/4/4 64/12/4
f 61/11/4 64/12/4 62/10/4
f 66/14/6 65/2/9 68/13/6
f 68/13/6 67/15/6 66/14/6
f 70/18/5 72/17/5 69/16/10
f 72/17/5 70/18/5 71/3/11
f 73/1/1 75/6/1 76/5/1
f 73/1/1 76/5/1 74/7/12
f 77/6/2 79/9/7 80/8/2
f 77/6/2 80/8/2 78/5/2
f 81/9/3 83/11/3 84/10/3
f 81/9/3 84/10/3 82/8/8
f 85/11/4 87/4/4 88/12/4
f 85/11/4 88/12/4 86/10/4
f 90/14/6 89/2/9 92/13/6
f 92/13/6 91/15/6 90/14/6
f 94/18/5 96/17/5 93/16/10
f 96/17/5 94/18/5 95/3/11
f 97/1/1 99/6/1 100/5/1
f 97/1/1 100/5/1 98/7/12
f 101/6/2 103/9/7 104/8/2
f 101/6/2 104/8/2 102/5/2
f 105/9/3 107/11/3 108/10/3
f 105/9/3 108/10/3 106/8/8
f 109/11/4 111/4/4 112/12/4
f 109/11/4 112/12/4 110/10/4
f 114/14/6 113/2/9 116/13/6
f 116/13/6 115/15/6 114/14/6
f 118/18/5 120/17/5 117/16/10
f 120/17/5 118/18/5 119/3/11
f 121/1/1 123/6/1 124/5/1
f 121/1/1 124/5/1 122/7/12
f 125/6/2 127/9/7 128/8/2
f 125/6/2 128/8/2 126/5/2
f 129/9/3 131/11/3 132/10/3
f 129/9/3 132/10/3 130/8/8
f 133/11/4 135/4/4 136/12/4
f 133/11/4 136/12/4 134/10/4
f 138/14/6 137/2/9 140/13/6
f 140/13/6 139/15/6 138/14/6
f 142/18/5 144/17/5 141/16/10
f 144/17/5 142/18/5 143/3/11
f 145/1/1 147/6/1 148/5/1
f 145/1/1 148/5/1 146/7/12
f 149/6/2 151/9/7 152/8/2
f 149/6/2 152/8/2 150/5/2
f 153/9/3 155/11/3 156/10/3
f 153/9/3 156/10/3 154/8/8
f 157/11/4 159/4/4 160/12/4
f 157/11/4 160/12/4 158/10/4
f 162/14/6 161/2/9 164/13/6
f 164/13/6 163/15/6 162/14/6
f 166/18/5 168/17/5 165/16/10
f 168/17/5 166/18/5 167/3/11
f 169/1/1 171/6/1 172/5/1
f 169/1/1 172/5/1 170/7/12
f 173/6/2 175/9/7 176/8/2
f 173/6/2 176/8/2 174/5/2
f 177/9/3 179/11/3 180/10/3
f 177/9/3 180/10/3 178/8/8
f 181/11/4 183/4/4 184/12/4
f 181/11/4 184/12/4 182/10/4
f 186/14/6 185/2/9 188/13/6
f 188/13/6 187/15/6 186/14/6
f 190/18/5 192/17/5 189/16/10
f 192/17/5 190/18/5 191/3/11
f 193/1/1 195/6/1 196/5/1
f 193/1/1 196/5/1 194/7/12
f 197/6/2 199/9/7 200/8/2
f 197/6/2 200/8/2 198/5/2
f 201/9/3 203/11/3 204/10/3
f 201/9/3 204/10/3 202/8/8
f 205/11/4 207/4/4 208/12/4
f 205/11/4 208/12/4 206/10/4
f 210/14/6 209/2/9 212/13/6
f 212/13/6 211/15/6 210/14/6
f 214/18/5 216/17/5 213/16/5
f 216/17/5 214/18/5 215/3/11

