# WaveFront *.obj file (generated by Cinema 4D)

mtllib ./1111_0001.mtl

v -0.161483 -0.494142 -0.000187
v -0.161483 -0.394142 -0.000187
v -0.161483 -0.294142 -0.000187
v -0.161483 -0.194142 -0.000187
v -0.161483 -0.094142 -0.000187
v -0.161483 0.005858 -0.000187
v -0.002460 -0.494142 -0.000153
v -0.002460 -0.394142 -0.000153
v -0.002460 -0.294142 -0.000153
v -0.002460 -0.194142 -0.000153
v -0.002460 -0.094142 -0.000153
v -0.002460 0.005858 -0.000153
v -0.002438 -0.494142 -0.100153
v -0.002438 -0.394142 -0.100153
v -0.002438 -0.294142 -0.100153
v -0.002438 -0.194142 -0.100153
v -0.002438 -0.094142 -0.100153
v -0.002438 0.005858 -0.100153
v -0.002417 -0.494142 -0.200153
v -0.002417 -0.394142 -0.200153
v -0.002417 -0.294142 -0.200153
v -0.002417 -0.194142 -0.200153
v -0.002417 -0.094142 -0.200153
v -0.002417 0.005858 -0.200153
v -0.002396 -0.494142 -0.300153
v -0.002396 -0.394142 -0.300153
v -0.002396 -0.294142 -0.300153
v -0.002396 -0.194142 -0.300153
v -0.002396 -0.094142 -0.300153
v -0.002396 0.005858 -0.300153
v -0.002374 -0.494142 -0.400153
v -0.002374 -0.394142 -0.400153
v -0.002374 -0.294142 -0.400153
v -0.002374 -0.194142 -0.400153
v -0.002374 -0.094142 -0.400153
v -0.002374 0.005858 -0.400153
v -0.002353 -0.494142 -0.500153
v -0.002353 -0.394142 -0.500153
v -0.002353 -0.294142 -0.500153
v -0.002353 -0.194142 -0.500153
v -0.002353 -0.094142 -0.500153
v -0.002353 0.005858 -0.500153
v -0.161376 -0.494142 -0.500187
v -0.161376 -0.394142 -0.500187
v -0.161376 -0.294142 -0.500187
v -0.161376 -0.194142 -0.500187
v -0.161376 -0.094142 -0.500187
v -0.161376 0.005858 -0.500187
v -0.161398 -0.494142 -0.400187
v -0.161398 -0.394142 -0.400187
v -0.222514 -0.294142 -0.400200
v -0.161412 -0.194142 -0.331806
v -0.217747 -0.094142 -0.400199
v -0.161398 0.005858 -0.400187
v -0.161419 -0.494142 -0.300187
v -0.218574 -0.394142 -0.300199
v -0.161419 -0.294142 -0.300187
v -0.161419 -0.194142 -0.300187
v -0.161419 -0.094142 -0.300187
v -0.161419 0.005858 -0.300187
v -0.161441 -0.494142 -0.200187
v -0.161441 -0.394142 -0.200187
v -0.190006 -0.294142 -0.200193
v -0.161441 -0.194142 -0.200187
v -0.161454 -0.094142 -0.139471
v -0.161441 0.005858 -0.200187
v -0.161462 -0.494142 -0.100187
v -0.196500 -0.394142 -0.100194
v -0.161462 -0.294142 -0.100187
v -0.206330 -0.194142 -0.100196
v -0.161462 -0.094142 -0.100187
v -0.161462 0.005858 -0.100187
# 72 vertices

vn -0.000214 0.000000 1.000000
vn 1.000000 0.000000 0.000214
vn 1.000000 0.000000 0.000214
vn 1.000000 0.000000 0.000214
vn 1.000000 0.000000 0.000214
vn 1.000000 0.000000 0.000214
vn 1.000000 0.000000 0.000214
vn 1.000000 0.000000 0.000214
vn 0.000214 0.000000 -1.000000
vn 0.000214 0.000000 -1.000000
vn -1.000000 0.000000 -0.000214
vn -0.979242 -0.143222 -0.143432
vn -0.980425 -0.142063 -0.136328
vn -0.981589 -0.134957 -0.135168
vn -0.994866 -0.096187 0.031455
vn -0.965859 -0.258616 -0.015298
vn -0.997086 -0.061153 0.045607
vn -0.977701 -0.207338 0.033355
vn -0.998832 -0.034274 0.034060
vn -0.985784 -0.167955 -0.004686
vn -0.985820 0.004475 0.167744
vn -0.973696 -0.161220 0.161011
vn -0.963845 0.044227 -0.262767
vn -0.994106 0.093665 -0.054582
vn -0.987492 0.138431 0.075478
vn -0.998102 0.055767 -0.026129
vn -0.997622 -0.020665 0.065744
vn -0.982331 -0.013840 0.186637
vn -0.966235 0.053957 -0.251951
vn -0.996584 0.081352 0.014247
vn -0.991086 0.086151 0.101623
vn -0.992515 0.063351 -0.104409
vn -0.998829 0.034314 0.034100
vn -0.977702 0.008472 0.209828
vn -0.966626 -0.014611 -0.255777
vn -0.999156 0.040830 0.004569
vn -0.990388 0.046350 0.130322
vn -0.997518 0.049685 -0.049898
vn -0.994520 0.104468 0.004001
vn -0.988249 0.108191 0.107979
vn -0.943892 0.233425 -0.233627
vn -0.966683 0.255569 0.014404
vn -0.982111 0.133254 0.133044
vn -1.000000 -0.000000 -0.000214
vn -1.000000 -0.000000 -0.000214
vn -1.000000 0.000000 -0.000214
vn 0.000000 1.000000 0.000000
vn 0.000000 -1.000000 0.000000
# 48 normals

vt 0.000000 0.000000 0.000000
vt 0.000000 0.200000 0.000000
vt 1.000000 0.200000 0.000000
vt 1.000000 0.000000 0.000000
vt 0.000000 0.400000 0.000000
vt 1.000000 0.400000 0.000000
vt 0.000000 0.600000 0.000000
vt 1.000000 0.600000 0.000000
vt 0.000000 0.800000 0.000000
vt 1.000000 0.800000 0.000000
vt 0.000000 1.000000 0.000000
vt 1.000000 1.000000 0.000000
vt 0.200000 0.200000 0.000000
vt 0.200000 0.000000 0.000000
vt 0.400000 0.200000 0.000000
vt 0.400000 0.000000 0.000000
vt 0.600000 0.200000 0.000000
vt 0.600000 0.000000 0.000000
vt 0.800000 0.200000 0.000000
vt 0.800000 0.000000 0.000000
vt 0.200000 0.400000 0.000000
vt 0.400000 0.400000 0.000000
vt 0.600000 0.400000 0.000000
vt 0.800000 0.400000 0.000000
vt 0.200000 0.600000 0.000000
vt 0.400000 0.600000 0.000000
vt 0.600000 0.600000 0.000000
vt 0.800000 0.600000 0.000000
vt 0.200000 0.800000 0.000000
vt 0.400000 0.800000 0.000000
vt 0.600000 0.800000 0.000000
vt 0.800000 0.800000 0.000000
vt 0.200000 1.000000 0.000000
vt 0.400000 1.000000 0.000000
vt 0.600000 1.000000 0.000000
vt 0.800000 1.000000 0.000000
# 36 texture coordinates

o 1111_0001
usemtl rubish3
f 7/4/1 8/3/1 2/2/1 1/1/1
f 8/3/1 9/6/1 3/5/1 2/2/1
f 9/6/1 10/8/1 4/7/1 3/5/1
f 10/8/1 11/10/1 5/9/1 4/7/1
f 11/10/1 12/12/1 6/11/1 5/9/1
f 13/14/2 14/13/2 8/2/2 7/1/2
f 19/16/3 20/15/3 14/13/2 13/14/2
f 25/18/3 26/17/2 20/15/3 19/16/3
f 31/20/4 32/19/4 26/17/2 25/18/3
f 37/4/5 38/3/5 32/19/4 31/20/4
f 14/13/2 15/21/2 9/5/2 8/2/2
f 20/15/3 21/22/3 15/21/2 14/13/2
f 26/17/2 27/23/2 21/22/3 20/15/3
f 32/19/4 33/24/4 27/23/2 26/17/2
f 38/3/5 39/6/6 33/24/4 32/19/4
f 15/21/2 16/25/2 10/7/2 9/5/2
f 21/22/3 22/26/3 16/25/2 15/21/2
f 27/23/2 28/27/2 22/26/3 21/22/3
f 33/24/4 34/28/4 28/27/2 27/23/2
f 39/6/6 40/8/6 34/28/4 33/24/4
f 16/25/2 17/29/2 11/9/2 10/7/2
f 22/26/3 23/30/3 17/29/2 16/25/2
f 28/27/2 29/31/2 23/30/3 22/26/3
f 34/28/4 35/32/4 29/31/2 28/27/2
f 40/8/6 41/10/5 35/32/4 34/28/4
f 17/29/2 18/33/7 12/11/7 11/9/2
f 23/30/3 24/34/2 18/33/7 17/29/2
f 29/31/2 30/35/2 24/34/2 23/30/3
f 35/32/4 36/36/8 30/35/2 29/31/2
f 41/10/5 42/12/5 36/36/8 35/32/4
f 43/4/9 44/3/9 38/2/9 37/1/9
f 44/3/9 45/6/9 39/5/9 38/2/9
f 45/6/9 46/8/9 40/7/9 39/5/9
f 46/8/9 47/10/9 41/9/9 40/7/9
f 47/10/9 48/12/10 42/11/10 41/9/9
f 49/14/14 50/13/13 44/2/12 43/1/11
f 55/16/16 56/15/15 50/13/13 49/14/14
f 61/18/18 62/17/17 56/15/15 55/16/16
f 67/20/20 68/19/19 62/17/17 61/18/18
f 1/4/22 2/3/21 68/19/19 67/20/20
f 50/13/13 51/21/24 45/5/23 44/2/12
f 56/15/15 57/22/25 51/21/24 50/13/13
f 62/17/17 63/23/26 57/22/25 56/15/15
f 68/19/19 69/24/27 63/23/26 62/17/17
f 2/3/21 3/6/28 69/24/27 68/19/19
f 51/21/24 52/25/30 46/7/29 45/5/23
f 57/22/25 58/26/31 52/25/30 51/21/24
f 63/23/26 64/27/32 58/26/31 57/22/25
f 69/24/27 70/28/33 64/27/32 63/23/26
f 3/6/28 4/8/34 70/28/33 69/24/27
f 52/25/30 53/29/36 47/9/35 46/7/29
f 58/26/31 59/30/37 53/29/36 52/25/30
f 64/27/32 65/31/38 59/30/37 58/26/31
f 70/28/33 71/32/39 65/31/38 64/27/32
f 4/8/34 5/10/40 71/32/39 70/28/33
f 53/29/36 54/33/42 48/11/41 47/9/35
f 59/30/37 60/34/43 54/33/42 53/29/36
f 65/31/38 66/35/44 60/34/43 59/30/37
f 71/32/39 72/36/45 66/35/44 65/31/38
f 5/10/40 6/12/46 72/36/45 71/32/39
f 12/4/47 18/3/47 72/2/47 6/1/47
f 18/3/47 24/6/47 66/5/47 72/2/47
f 24/6/47 30/8/47 60/7/47 66/5/47
f 30/8/47 36/10/47 54/9/47 60/7/47
f 36/10/47 42/12/47 48/11/47 54/9/47
f 37/4/48 31/3/48 49/2/48 43/1/48
f 31/3/48 25/6/48 55/5/48 49/2/48
f 25/6/48 19/8/48 61/7/48 55/5/48
f 19/8/48 13/10/48 67/9/48 61/7/48
f 13/10/48 7/12/48 1/11/48 67/9/48

