# Blender v3.2.1 OBJ File: 'BlenderSource.blend'
# www.blender.org
mtllib 0000 1011.mtl
o 0000_1011_立方体.052
v -24.382206 0.000000 18.500000
v -23.882206 0.000000 18.500000
v -24.382206 -0.500000 18.500000
v -24.882206 0.000000 17.500000
v -24.882206 0.000000 18.000000
v -24.882206 -0.500000 18.000000
v -23.882206 0.000000 18.000000
v -23.882206 0.000000 17.500000
v -24.382206 0.000000 18.000000
v -24.382206 0.000000 17.500000
v -24.382206 -0.500000 18.000000
vt 0.375000 1.000000
vt 0.625000 0.750000
vt 0.375000 0.750000
vt 0.125000 0.750000
vt 0.375000 0.500000
vt 0.125000 0.500000
vt 0.625000 0.500000
vt 0.375000 1.000000
vt 0.625000 0.750000
vt 0.625000 1.000000
vt 0.625000 0.750000
vt 0.625000 1.000000
vt 0.625000 1.000000
vt 0.375000 1.000000
vn -0.0000 1.0000 -0.0000
vn -1.0000 0.0000 0.0000
vn 0.0000 0.0000 1.0000
usemtl None
s off
f 1/1/1 7/2/1 9/3/1
f 1/4/2 11/5/2 3/6/2
f 9/3/3 6/7/3 11/5/3
f 10/8/1 5/9/1 9/3/1
f 9/3/1 8/10/1 10/11/1
f 1/1/1 2/12/1 7/2/1
f 1/4/2 9/3/2 11/5/2
f 9/3/3 5/9/3 6/7/3
f 10/8/1 4/13/1 5/9/1
f 9/3/1 7/14/1 8/10/1
