# Blender v3.2.1 OBJ File: 'BlenderSource.blend'
# www.blender.org
mtllib 0100 1000.mtl
o 0100_1000_立方体.032
v -14.996367 -0.499987 14.000000
v -14.996367 -0.499987 14.500000
v -14.496380 -0.496353 14.000000
v -14.500013 0.003633 14.000000
v -14.500013 0.003633 14.500000
v -15.000000 0.500000 14.000000
v -15.000000 0.500000 14.500000
v -15.500000 0.500000 14.000000
v -15.000000 0.000000 14.000000
v -15.000000 0.000000 14.500000
v -15.500000 0.000000 14.000000
v -15.500000 0.000000 14.500000
vt 0.375000 0.750000
vt 0.625000 0.500000
vt 0.375000 0.500000
vt 0.375000 1.000000
vt 0.625000 0.750000
vt 0.125000 0.750000
vt 0.125000 0.500000
vt 0.625000 0.500000
vt 0.375000 0.500000
vt 0.375000 1.000000
vt 0.125000 0.750000
vt 0.125000 0.500000
vt 0.625000 1.000000
vt 0.625000 1.000000
vn -0.0073 1.0000 0.0000
vn -1.0000 -0.0073 -0.0000
vn -0.0000 0.0000 -1.0000
vn 0.0000 -1.0000 -0.0000
vn 1.0000 0.0000 0.0000
usemtl None
s off
f 9/1/1 5/2/1 4/3/1
f 1/4/2 10/5/2 9/1/2
f 1/6/3 4/3/3 3/7/3
f 9/1/4 12/8/4 11/9/4
f 6/10/5 10/5/5 9/1/5
f 6/11/3 11/9/3 8/12/3
f 9/1/1 10/5/1 5/2/1
f 1/4/2 2/13/2 10/5/2
f 1/6/3 9/1/3 4/3/3
f 9/1/4 10/5/4 12/8/4
f 6/10/5 7/14/5 10/5/5
f 6/11/3 9/1/3 11/9/3
