# Blender v3.2.1 OBJ File: 'BlenderSource.blend'
# www.blender.org
mtllib 1000 0000.mtl
o 1000_0000_立方体.233
v -0.862171 -0.000000 19.810280
v -0.362171 -0.000000 19.810280
v -0.862171 0.500000 19.810280
v -0.862171 -0.000000 19.310280
v -0.362171 -0.000000 19.310280
v -0.862171 0.500000 19.310280
v -0.362171 0.500000 19.310280
vt 0.625000 0.500000
vt 0.375000 0.750000
vt 0.375000 0.500000
vt 0.625000 0.750000
vt 0.375000 1.000000
vt 0.125000 0.750000
vt 0.125000 0.500000
vt 0.625000 1.000000
vn 0.0000 0.0000 -1.0000
vn -0.0000 -1.0000 -0.0000
vn -1.0000 0.0000 0.0000
usemtl None
s off
f 7/1/1 4/2/1 6/3/1
f 5/4/2 1/5/2 4/2/2
f 6/3/3 1/6/3 3/7/3
f 7/1/1 5/4/1 4/2/1
f 5/4/2 2/8/2 1/5/2
f 6/3/3 4/2/3 1/6/3
